<svg xmlns="http://www.w3.org/2000/svg" viewBox="0 0 512 512">
  <path fill="#3fb777" d="M512 256a256 256 0 1 1-512 0 256 256 0 0 1 512 0zm0 0"/>
  <path fill="#f74f4f" d="M512 159.9a149.2 149.2 0 1 1-298.4 0 149.2 149.2 0 0 1 298.4 0zm0 0"/>
  <path fill="#f2f0ec" d="M478.5 159.9a115.7 115.7 0 1 1-231.4 0 115.7 115.7 0 0 1 231.4 0zm0 0"/>
  <path fill="#f74f4f" d="M444.6 159.9a81.8 81.8 0 1 1-163.6 0 81.8 81.8 0 0 1 163.6 0zm0 0"/>
  <path fill="#f2f0ec" d="M404.6 159.9a41.8 41.8 0 1 1-83.6 0 41.8 41.8 0 0 1 83.6 0zm0 0"/>
  <path fill="#f74f4f" d="M378.6 159.9a15.7 15.7 0 1 1-31.5 0 15.7 15.7 0 0 1 31.5 0zm0 0"/>
  <path fill="#dd3033" d="M503 113l-27.5-19-3.2-33.5-47 27.5 2 22-69.8 40.8 10.6 18 69.8-40.7 18.1 12.5zm0 0"/>
  <path fill="#dd3033" d="M503 113l-27.5-19-3.2-33.5-47 27.5 2 22-69.8 40.8 10.6 18 69.8-40.7 18.1 12.5zm0 0"/>
  <path fill="#d8d5d0" d="M474.6 129.8L456 140.6l-17.6-12.2a81.5 81.5 0 0 0-11.2-19l-2-21.4 18.6-10.8a115.4 115.4 0 0 1 30.8 52.6zm0 0"/>
  <path fill="#e8c934" d="M397.6 67.2l38.6-38.6 11.5 31.6-38.6 38.6zm0 0"/>
  <path fill="#3d4159" d="M462.5 75l-90.1 90a10.5 10.5 0 0 1-14.8-14.7l90.1-90.1zm0 0"/>
  <path fill="#ffe152" d="M448.1 117.7L486.7 79 455 67.6 416.5 106zm0 0"/>
  <path fill="#713775" d="M298.5 449.6v29.2a254 254 0 0 1-83.9 29.7h-.4a254.7 254.7 0 0 1-160.6-95.7 95.3 95.3 0 0 1 87.8-58.4h62a95 95 0 0 1 24.5 3.2h.1a95 95 0 0 1 70.5 92zm0 0"/>
  <path fill="#854f89" d="M298.5 449.6v58.9A256.8 256.8 0 0 1 93 453.4v-3.8a95.2 95.2 0 0 1 95.1-95.2h15.3a95 95 0 0 1 24.5 3.2h.1a95 95 0 0 1 70.5 92zm0 0"/>
  <path fill="#f2f0ec" d="M228.3 356.6l-.3 1L196.4 505a252.8 252.8 0 0 1-52-18.5l-27.6-128.8-.3-1.1zm0 0"/>
  <path fill="#d8d5d0" d="M172.4 393.4l-42.8 23.8-13-60.6 26.5-15.7M172.4 393.4l42.8 23.8 13-60.6-26.6-15.7"/>
  <path fill="#3d4159" d="M44.5 331.5V188a128 128 0 0 1 255.8 0v143.5"/>
  <path fill="#2a2f4f" d="M97.1 193.6c0 50.8 29.7 109.5 46 138H44.6V188a128 128 0 0 1 127-127.9c-39.3 1-74.4 64.1-74.4 133.5zm0 0"/>
  <path fill="#eab599" d="M206.4 317.8v41.7a34 34 0 0 1-68 0v-41.7zm0 0"/>
  <path fill="#f6caae" d="M206.4 356.8v2.7a34 34 0 0 1-24 32.4 34 34 0 0 1-23.6-28 110.4 110.4 0 0 0 25.7-1.3c7.6-1.2 14.9-3.2 21.9-5.8zm0 0M79.3 249.5a31.6 31.6 0 1 1-63.1 0 31.6 31.6 0 0 1 63.1 0zm0 0"/>
  <g fill="#eab599">
    <path d="M79.3 249.5a31.6 31.6 0 0 1-26.5 31.2 117.4 117.4 0 0 1 0-62.3 31.6 31.6 0 0 1 26.5 31.1zm0 0"/>
    <path d="M59 249.5a11.3 11.3 0 1 1-22.5 0 11.3 11.3 0 0 1 22.5 0zm0 0"/>
    <path d="M253.5 209.2v108.5a117 117 0 0 1-62.2 31h-.6A117.4 117.4 0 0 1 55 232.8V188c0-5.7.4-11.3 1.2-16.8 28 20 68 18 93.5-6 8.5-8 14.3-17.5 17.6-27.6a77.5 77.5 0 0 0 24.3 48.4c17 16 39.5 23.8 61.9 23.2zm0 0"/>
  </g>
  <path fill="#f6caae" d="M253.5 209.2v108.5a117 117 0 0 1-62.2 31h-.6a117.5 117.5 0 0 1-99.2-116V188l.1-3.5a73.6 73.6 0 0 0 58.1-19.3c8.5-8 14.3-17.5 17.6-27.6a77.5 77.5 0 0 0 24.3 48.4c17 16 39.5 23.8 61.9 23.2zm0 0"/>
  <path fill="#eab599" d="M235.5 222.8a19.5 19.5 0 1 0-39 0M148.4 222.8a19.5 19.5 0 0 0-39 0"/>
  <path fill="#3d4159" d="M142.2 231.1a13.3 13.3 0 1 1-26.7 0 13.3 13.3 0 0 1 26.7 0zm0 0M229.3 231.1a13.3 13.3 0 1 1-26.7 0 13.3 13.3 0 0 1 26.7 0zm0 0"/>
  <path fill="#eab599" d="M185.7 264.7h-26.6a5.7 5.7 0 0 1 0-11.5h26.6a5.7 5.7 0 1 1 0 11.5zm0 0M172.4 301c-9.8 0-19.7-2.4-28.6-7.3a5.2 5.2 0 1 1 5-9.2 48.7 48.7 0 0 0 47.2 0 5.2 5.2 0 0 1 5 9.2c-9 4.9-18.8 7.3-28.6 7.3zm0 0"/>
  <path fill="#fff" d="M139.5 228.8a5.7 5.7 0 1 1-11.5 0 5.7 5.7 0 0 1 11.5 0zm0 0M227.2 228.8a5.7 5.7 0 1 1-11.4 0 5.7 5.7 0 0 1 11.4 0zm0 0"/>
  <path fill="#eab599" d="M252.3 263.6a14.6 14.6 0 1 1-29.2 0 14.6 14.6 0 0 1 29.2 0zm0 0M121.7 263.6a14.6 14.6 0 1 1-29.2 0 14.6 14.6 0 0 1 29.2 0zm0 0M279 443.1v31.6a12.8 12.8 0 0 0 25.6 0V443a12.8 12.8 0 1 0-25.6 0zm0 0"/>
  <path fill="#f6caae" d="M279 443.1V499c0 5.4 3.3-14.2 8-12.3 4.8-2 8-6.5 8-12v-31.5c0-5.4-3.2-10-8-11.9-1.6.7-3 1.6-4.2 2.9a12.8 12.8 0 0 0-3.8 9zm0 0"/>
  <path fill="#eab599" d="M332.3 485.1v15.3a242 242 0 0 1-23.5 6.1l-1.1.3A242.1 242.1 0 0 1 279 511V485a26.6 26.6 0 1 1 53.3 0zm0 0"/>
  <path fill="#f6caae" d="M312.4 485.1v20.6l-3.6.8-1.1.3A242.1 242.1 0 0 1 279 511V485a26.6 26.6 0 0 1 16.7-24.7c9.8 4 16.7 13.5 16.7 24.7zm0 0"/>
</svg>
