<svg xmlns="http://www.w3.org/2000/svg" viewBox="0 0 512 511">
  <path fill="#3d4159" d="M512 256.5a254.8 254.8 0 0 1-109.9 210.2A254.7 254.7 0 0 1 256 512.5a256 256 0 1 1 256-256zm0 0"/>
  <path fill="#d8d5d0" d="M.6 213.8l12 30.9a9 9 0 0 0 11 5.2l25.8-8.1a9 9 0 0 1 10 3.3c7 9.7 15.3 18.3 24.4 25.5a9 9 0 0 1 2.9 10.1l-9.2 25.4a9 9 0 0 0 4.8 11.2l30.4 13.4a9 9 0 0 0 11.5-4l12.4-24a9 9 0 0 1 9.4-4.7 132 132 0 0 0 35.4.7 9 9 0 0 1 9.1 5.1l11.5 24.5a9 9 0 0 0 11.3 4.6l30.9-12.1a8.9 8.9 0 0 0 5.2-11l-8-25.8a9 9 0 0 1 3.2-9.9 132 132 0 0 0 25.5-24.4 9 9 0 0 1 10.1-3l25.4 9.3a9 9 0 0 0 11.2-4.8l13.4-30.4a9 9 0 0 0-4-11.5l-24-12.5a9 9 0 0 1-4.7-9.4c1.8-11.5 2.1-23.4.8-35.3a9 9 0 0 1 5-9.1l24.5-11.5a9 9 0 0 0 4.5-11.3l-12-31a8.9 8.9 0 0 0-11-5.2l-25.8 8.1a9 9 0 0 1-9.9-3.3c-7-9.7-15.3-18.2-24.4-25.5a9 9 0 0 1-3-10l9.3-25.5a9 9 0 0 0-4.8-11.2l-8.3-3.6-22-9.7a8.9 8.9 0 0 0-11.6 4l-12.5 24A9 9 0 0 1 187 36a131.4 131.4 0 0 0-35.3-.8 9 9 0 0 1-9.1-5L134.9 14 131 5.6a9 9 0 0 0-11.3-4.5l-31 12a8.9 8.9 0 0 0-5.2 11L91.6 50a9 9 0 0 1-3.3 10c-9.6 7-18.2 15.3-25.5 24.4a9 9 0 0 1-10 3L27.3 78a9 9 0 0 0-11.2 4.8L2.8 113.2a8.9 8.9 0 0 0 4 11.4l24 12.5a9 9 0 0 1 4.7 9.4 131.6 131.6 0 0 0-.8 35.4 9 9 0 0 1-5 9.1L5 202.4c-4.2 2-6.2 7-4.5 11.4zM148.3 112a57.8 57.8 0 1 1 36.3 109.7 57.8 57.8 0 0 1-36.3-109.7zm0 0"/>
  <path fill="#c0bcb4" d="M56.5 167a110 110 0 1 0 220 0 110 110 0 0 0-220 0zm91.8-54.9a57.8 57.8 0 1 1 36.3 109.7 57.8 57.8 0 0 1-36.3-109.7zm0 0M489.7 151.9A257 257 0 0 0 368.2 26.3a8.8 8.8 0 0 1-4.5 2.2L337 32.8c-4.6.8-7.9 5-7.4 9.7l3.2 33a9 9 0 0 0 9.1 8l27-.8a9 9 0 0 1 8.7 6c4.1 11.2 9.8 21.6 16.6 31.1a9 9 0 0 1 0 10.5l-15.8 22a9 9 0 0 0 1.6 12l25.6 21.2a9 9 0 0 0 12.2-.8l18.5-19.7a9 9 0 0 1 10.3-2c10.6 5 22 8.5 33.8 10.4a9 9 0 0 1 7.4 7.4l4.4 26.7a9 9 0 0 0 9.6 7.4l6.7-.6a254 254 0 0 0-18.8-62.4zm0 0"/>
  <path fill="#d8d5d0" d="M392 39.5A110 110 0 0 0 489.7 152 257 257 0 0 0 392 39.5zm0 0"/>
  <path fill="#c0bcb4" d="M223.6 403l2.3 37.8c.3 5.4 4.7 9.5 10 9.6l30.9.1c4.4 0 8.2 3 9.6 7 4.3 13 10.3 25.2 17.7 36.3 2.4 3.7 2.3 8.5-.4 12l-3.4 4.4a253.3 253.3 0 0 0 105.2-39 66 66 0 1 1 84-89.6A254.5 254.5 0 0 0 511.9 261l-12.3 12.1c-3.1 3.1-7.9 3.8-11.8 1.8-12-6-24.7-10.5-38.1-13.1-4.3-1-7.6-4.4-8.2-8.7l-2.5-20.2-1.4-10.4c-.7-5.3-5.3-9.2-10.7-8.9l-37.7 2.3c-5.4.3-9.6 4.7-9.6 10.1l-.2 30.8c0 4.4-2.8 8.3-7 9.6-13 4.3-25.1 10.3-36.2 17.7a10.2 10.2 0 0 1-12-.3l-24.4-19a10.2 10.2 0 0 0-13.8 1.4L261 294.5c-3.6 4-3.4 10.1.4 14l21.7 21.9c3 3 3.8 7.8 1.8 11.8-6 11.9-10.5 24.7-13.2 38-.9 4.4-4.3 7.7-8.7 8.2l-30.6 4c-5.3.6-9.2 5.3-8.8 10.6zm0 0"/>
  <path fill="#d8d5d0" d="M333.2 500.6c22.2-7 43.1-17 62.3-29.4a66 66 0 1 1 84-89.6 254.4 254.4 0 0 0 25.2-64.1 125.4 125.4 0 0 0-171.5 183.2zm0 0M16.6 347.5a254.9 254.9 0 0 0 59 90.7l.9.3a61.5 61.5 0 0 1 30.5 26.2 255 255 0 0 0 130.9 47.2 9.6 9.6 0 0 0 1.8-6l-1.7-36c-.3-5.1-4.4-9.2-9.5-9.2l-29.3-.6a9.7 9.7 0 0 1-9-6.8 143 143 0 0 0-16.4-34.7 9.7 9.7 0 0 1 .5-11.3l18.3-23c3.1-4 2.7-9.7-1-13.1L164.8 347a9.7 9.7 0 0 0-13.2.1l-21 20.4a9.7 9.7 0 0 1-11.3 1.5c-11.5-6-23.7-10.3-36-12.9a9.7 9.7 0 0 1-7.8-8.4l-3.3-29.1c-.5-5-5-8.8-10-8.6l-9.9.5-26 1.2c-5.2.3-9.2 4.4-9.3 9.5zm0 0"/>
  <path fill="#c0bcb4" d="M31.4 379.3a242.6 242.6 0 0 0 14.1 23c9 12.9 19 24.9 30.2 36l.8.2a61.5 61.5 0 0 1 30.5 26.2 255 255 0 0 0 65.3 33.8 119.3 119.3 0 0 0-141-119.2zm0 0"/>
  <path fill="#f74f4f" d="M71 163.7l56.8-56.8A71.7 71.7 0 0 1 229 208.2l-56.9 56.7"/>
  <path fill="#dd3033" d="M146.4 130c-20.1 20-31.6 55-36.4 72.7l-39-39 56.8-56.8a71.3 71.3 0 0 1 100.9-.4c-16-15.2-54.8-4-82.3 23.4zm0 0"/>
  <path fill="#f6caae" d="M117.2 145a17.7 17.7 0 1 1-25-25 17.7 17.7 0 0 1 25 25zm0 0"/>
  <g fill="#eab599">
    <path d="M117.2 145c-6.2 6.2-16 6.8-22.8 1.8a65.6 65.6 0 0 1 24.6-24.7c5 7 4.4 16.7-1.8 22.9zm0 0"/>
    <path d="M111 132.5a6.3 6.3 0 1 1-12.6 0 6.3 6.3 0 0 1 12.6 0zm0 0"/>
    <path d="M202.1 198l-43 43c-13-.4-25.8-4.5-36.8-12.4l-.3-.2a65.7 65.7 0 0 1-7.8-99.7L132 111c2.3-2.3 4.7-4.3 7.2-6.2 3 19 19.7 34 39.4 34.6 6.5.2 12.6-1.2 17.9-3.9a43.4 43.4 0 0 0-9.6 28.8 48.5 48.5 0 0 0 15.3 33.7zm0 0"/>
  </g>
  <path fill="#f6caae" d="M202.1 198l-43 43c-13-.4-25.8-4.5-36.8-12.4l-.3-.2a65.8 65.8 0 0 1 6.7-85.2l17.7-17.7 1.4-1.4c7.4 9 18.4 15 30.7 15.3 6.5.2 12.6-1.2 17.9-3.9a43.4 43.4 0 0 0-9.6 28.8 48.5 48.5 0 0 0 15.3 33.7zm0 0"/>
  <path fill="#eab599" d="M189.6 196.2a11 11 0 1 0-15.4-15.4M155.1 161.8a11 11 0 1 0-15.4-15.5"/>
  <path fill="#3d4159" d="M151.6 157.3a7.5 7.5 0 1 1-15 0 7.5 7.5 0 0 1 15 0zm0 0M186 191.8a7.5 7.5 0 1 1-14.9 0 7.5 7.5 0 0 1 15 0zm0 0"/>
  <path fill="#eab599" d="M153.3 193.1l-10.5-10.5a3.2 3.2 0 1 1 4.5-4.6l10.6 10.6a3.2 3.2 0 1 1-4.6 4.5zm0 0M133.7 202.2a33.2 33.2 0 0 1-8.4-14.2 3 3 0 0 1 5.6-1.7c2.6 9.1 9.6 16.1 18.7 18.7a3 3 0 0 1-1.7 5.6 33.2 33.2 0 0 1-14.2-8.4zm0 0"/>
  <path fill="#fff" d="M150.2 158.3a3.2 3.2 0 1 1-6.4 0 3.2 3.2 0 0 1 6.4 0zm0 0M185 193a3.2 3.2 0 1 1-6.5 0 3.2 3.2 0 0 1 6.4 0zm0 0"/>
  <path fill="#eab599" d="M182.5 213.3a8.2 8.2 0 1 1-16.3 0 8.2 8.2 0 0 1 16.3 0zm0 0M130.8 161.6a8.2 8.2 0 1 1-16.4 0 8.2 8.2 0 0 1 16.4 0zm0 0"/>
  <path fill="#f6caae" d="M363.7 420a17.7 17.7 0 1 1-35.3 0 17.7 17.7 0 0 1 35.3 0zm0 0"/>
  <path fill="#eab599" d="M363.7 420c0 8.7-6.4 16-14.8 17.4a65.6 65.6 0 0 1 0-35 17.7 17.7 0 0 1 14.8 17.5zm0 0"/>
  <path fill="#eab599" d="M352.4 420a6.3 6.3 0 1 1-12.6 0 6.3 6.3 0 0 1 12.6 0zm0 0"/>
  <path fill="#eab599" d="M481.2 378.4a257.2 257.2 0 0 1-87.6 94 65.7 65.7 0 0 1-43.5-61.9v-25a65.7 65.7 0 0 1 65.7-65.7 65.8 65.8 0 0 1 65.3 58.6zm0 0"/>
  <path fill="#f6caae" d="M481.2 378.4a257.2 257.2 0 0 1-79 88.3 65.7 65.7 0 0 1-31.6-56.2v-25c0-32.8 24-60 55.5-65a65.8 65.8 0 0 1 55 57.9zm0 0"/>
  <path fill="#3d4159" d="M401.8 406.7a7.5 7.5 0 1 1-14.9 0 7.5 7.5 0 0 1 15 0zm0 0M444.8 406.7a7.5 7.5 0 1 1-15 0 7.5 7.5 0 0 1 15 0zm0 0"/>
  <path fill="#fff" d="M400.3 405.4a3.2 3.2 0 1 1-6.4 0 3.2 3.2 0 0 1 6.4 0zm0 0M443.6 405.4a3.2 3.2 0 1 1-6.4 0 3.2 3.2 0 0 1 6.4 0zm0 0"/>
  <path fill="#eab599" d="M423.3 422.6h-15a3.2 3.2 0 1 1 0-6.5h15a3.2 3.2 0 0 1 0 6.5zm0 0M415.8 443c-5.5 0-11-1.5-16-4.2a3 3 0 1 1 2.8-5.2 27.3 27.3 0 0 0 26.5 0 3 3 0 0 1 2.8 5.2c-5 2.7-10.6 4.1-16 4.1zm0 0"/>
  <path fill="#a35418" d="M481.6 362.8v14.8l-.4.8-5.8 10h-6v-20L381 351.9l-18.7-3.4v40h-12.2v-25.7a53 53 0 0 1 53-53h25.6l2 .1a52.9 52.9 0 0 1 50.9 52.9zm0 0"/>
  <path fill="#cc7a3b" d="M481.6 362.8v14.8l-.4.8-5.8 10h-6v-20L381 351.9a53 53 0 0 1 49.8-42 52.9 52.9 0 0 1 50.8 52.9zm0 0"/>
</svg>
