<svg xmlns="http://www.w3.org/2000/svg" viewBox="0 0 512 512">
  <path fill="#3fb777" d="M512 256a256 256 0 0 1-129.8 222.8A253.5 253.5 0 0 1 256 512c-71.4 0-136-29.3-182.5-76.4A255 255 0 0 1 0 256 255 255 0 0 1 94 57.8 256 256 0 0 1 256 0c81.6 0 154.3 38.2 201.2 97.6l6.9 9.2a254.5 254.5 0 0 1 43.1 99.4l.5 2.6c2.8 15.3 4.3 31 4.3 47.2zm0 0"/>
  <g fill="#2da365">
    <path d="M512 256c0 8-.4 15.8-1 23.5a35.3 35.3 0 0 1-35.6-37.7v-.2L441.1 280l-37.5-33.6-34-30.5-37.5-33.6 33.4-37.4 1-1-.3.1a35.4 35.4 0 0 1-31.5-59.6 35.6 35.6 0 0 1 60.8 27v.1l34.3-38.3 27.4 24.5 6.9 9.2a35.6 35.6 0 0 0-22.6 60.8 35.5 35.5 0 0 0 53.2-4.2c5.4 13.7 9.6 28 12.5 42.9l-1.8 2-.9.9h.3l2.9-.4c2.8 15.3 4.3 31 4.3 47.2zm0 0M235 66.2a35.4 35.4 0 0 1-32.4-2.3l-.1-.1 18.1 48.1-47.1 17.8-42.7 16.1-47.2 17.9-17.7-47-.4-1.2-.1.3A35.4 35.4 0 0 1 44 138.2c-5.4 2-11.1 2.7-16.5 2 16.2-31.8 38.9-60 66.4-82.4A35.4 35.4 0 0 0 145.4 25a253.9 253.9 0 0 1 37-14.3l4.2 11.1.5 1.3v-.3c2-6.2 5.7-11.8 10.7-16.2 12-2.8 24.4-4.7 37-5.7a35.6 35.6 0 0 1 .1 65.3zm0 0M173.7 412a35.6 35.6 0 0 1-64.8-15v-.2l-26.5 44-8.9-5.2A255 255 0 0 1 .3 269c3 4.5 4.7 9.5 5.4 14.8v.2L32.2 240l43.2 25.9a35.4 35.4 0 0 0-13.9 64.7 35.5 35.5 0 0 0 53-41.2l43.3 26-2.8 4.5-23 38.4-.7 1.1h.2a35.4 35.4 0 0 1 42.2 52.6zm0 0M442.6 391.3L419 436a35.4 35.4 0 0 0-65.3-10.4 35.5 35.5 0 0 0 28.5 53.3c-15 8.5-31 15.6-47.8 21l-4.6-2.5-1.2-.6.1.2 1.5 4.2c-22 6.6-45.3 10.4-69.4 10.8a35.1 35.1 0 0 1 29.1-35.5h.2l-45.5-24.1 23.6-44.6 21.4-40.3 23.5-44.5 44.4 23.4 1 .6v-.2a35.4 35.4 0 1 1 38.8 20.5h-.2zm0 0"/>
  </g>
  <path fill="#dd3033" d="M382.1 449.6v29.2A254 254 0 0 1 233.3 511 254.5 254.5 0 0 1 130 478.8v-29.2a95.2 95.2 0 0 1 95.1-95.2h62c6.9 0 13.6.8 20.1 2.2l1.2.2 3.2.8h.1a95 95 0 0 1 70.5 92zm0 0"/>
  <path fill="#f74f4f" d="M382.1 449.6v29.2A254 254 0 0 1 233.3 511a254.5 254.5 0 0 1-56.7-11.6v-49.8a95.2 95.2 0 0 1 95.1-95.2H287c6.9 0 13.6.8 20.1 2.2l1.2.2 3.2.8h.1a95 95 0 0 1 70.5 92zm0 0"/>
  <path fill="#f2f0ec" d="M311.8 356.6l-.2 1-33 153.4a258.5 258.5 0 0 1-45.3 0l-33-153.3-.2-1.1zm0 0"/>
  <path fill="#d8d5d0" d="M256 393.4l-42.8 23.8-13-60.6 26.5-15.7M256 393.4l42.8 23.8 13-60.6-26.6-15.7"/>
  <path fill="#ffe152" d="M128.1 331.5V188a128 128 0 0 1 255.8 0v143.5"/>
  <path fill="#e8c934" d="M180.7 193.6c0 50.8 29.7 109.5 46 138h-98.6V188a128 128 0 0 1 127-127.9c-39.4 1-74.4 64.1-74.4 133.5zm0 0"/>
  <path fill="#eab599" d="M290 317.8v41.7a34 34 0 0 1-68 0v-41.7zm0 0"/>
  <path fill="#f6caae" d="M290 356.8v2.7a34 34 0 0 1-24 32.4 34 34 0 0 1-23.6-28 110.4 110.4 0 0 0 25.7-1.3 115 115 0 0 0 21.8-5.8zm0 0M162.9 249.5a31.6 31.6 0 1 1-63.1 0 31.6 31.6 0 0 1 63 0zm0 0"/>
  <path fill="#eab599" d="M162.9 249.5a31.6 31.6 0 0 1-26.5 31.2 117.4 117.4 0 0 1 0-62.3 31.6 31.6 0 0 1 26.5 31.1zm0 0"/>
  <path fill="#eab599" d="M142.6 249.5a11.3 11.3 0 1 1-22.6 0 11.3 11.3 0 0 1 22.6 0zm0 0"/>
  <path fill="#eab599" d="M337 209.2v108.5a117 117 0 0 1-62.2 31h-.5a117.4 117.4 0 0 1-135.7-116V188c0-5.7.4-11.3 1.2-16.8 27.9 20 68 18 93.5-6 8.4-8 14.3-17.5 17.6-27.6a77.5 77.5 0 0 0 24.3 48.4c17 16 39.5 23.8 61.8 23.2zm0 0"/>
  <path fill="#f6caae" d="M337 209.2v108.5a117 117 0 0 1-62.2 31h-.5a117.5 117.5 0 0 1-99.2-116V188v-3.5a73.6 73.6 0 0 0 58.2-19.3c8.4-8 14.3-17.5 17.6-27.6a77.5 77.5 0 0 0 24.3 48.4c17 16 39.5 23.8 61.8 23.2zm0 0"/>
  <path fill="#eab599" d="M319 222.8a19.5 19.5 0 1 0-39 0M232 222.8a19.5 19.5 0 1 0-39 0"/>
  <path fill="#3d4159" d="M225.8 231.1a13.3 13.3 0 1 1-26.7 0 13.3 13.3 0 0 1 26.7 0zm0 0M312.9 231.1a13.3 13.3 0 1 1-26.7 0 13.3 13.3 0 0 1 26.7 0zm0 0"/>
  <path fill="#eab599" d="M269.3 264.7h-26.6a5.7 5.7 0 1 1 0-11.5h26.6a5.7 5.7 0 1 1 0 11.5zm0 0M256 301c-9.8 0-19.7-2.4-28.6-7.3a5.2 5.2 0 0 1 5-9.2 48.7 48.7 0 0 0 47.2 0 5.2 5.2 0 1 1 5 9.2c-9 4.9-18.8 7.3-28.6 7.3zm0 0"/>
  <path fill="#fff" d="M223 228.8a5.7 5.7 0 1 1-11.4 0 5.7 5.7 0 0 1 11.5 0zm0 0M310.8 228.8a5.7 5.7 0 1 1-11.4 0 5.7 5.7 0 0 1 11.4 0zm0 0"/>
  <path fill="#eab599" d="M336 263.6a14.6 14.6 0 1 1-29.3 0 14.6 14.6 0 0 1 29.2 0zm0 0M205.3 263.6a14.6 14.6 0 1 1-29.2 0 14.6 14.6 0 0 1 29.2 0zm0 0"/>
  <path fill="#3d4159" d="M51.1 346l11.1 49.2 50.2-11.3-.1.2a35.4 35.4 0 1 0 42.8-9.6l-.2-.1 1.2-.3 49-11-5.3 1.1 5.3-1.1-11-49.2a35.4 35.4 0 1 1-10-44.5L173 220.2l-50.2 11.3v-.2a35.4 35.4 0 1 0-42.5 9.7l-1.3.3-49 11 11.1 49.2"/>
  <path fill="#eab599" d="M163.3 449v29.8c0 5.3-1.5 10.1-4.1 14.3a253.9 253.9 0 0 1-49.2-26.8v-17.2a26.7 26.7 0 0 1 53.3 0zm0 0"/>
  <path fill="#f6caae" d="M163.3 449v29.8c0 5.3-1.5 10.1-4.1 14.3a253.9 253.9 0 0 1-29.3-14.3v-29.7c0-11.2 6.9-20.8 16.7-24.8a26.4 26.4 0 0 1 16.7 24.8zm0 0"/>
</svg>
