<svg xmlns="http://www.w3.org/2000/svg" viewBox="0 0 512 512">
  <path fill="#66baed" d="M512 256a254.5 254.5 0 0 1-13 81 256.7 256.7 0 0 1-129 148.3l-2.5 1.2A255 255 0 0 1 256 512a256 256 0 1 1 256-256zm0 0"/>
  <path fill="#3d4159" d="M307 449.6v57.3a255.4 255.4 0 0 1-247.5-87 95.3 95.3 0 0 1 90.3-65.5h62c6.9 0 13.6.8 20.1 2.2l1.2.2 3.2.8h.1a95 95 0 0 1 70.5 92zm0 0"/>
  <path fill="#dde8ed" d="M236.6 356.6l-.2 1-32 149.2-1.2-.3a230.8 230.8 0 0 1-37.6-11 280.6 280.6 0 0 1-11.8-4.7L125 357.7l-.2-1.1zm0 0"/>
  <path fill="#f74f4f" d="M206.3 388.8l-25.5 41-25.6-41"/>
  <path fill="#f74f4f" d="M203.2 506.5a230.8 230.8 0 0 1-37.6-11c-1.4-.4-2.7-1-4-1.5l19.2-75zm0 0"/>
  <path fill="#bfd5de" d="M180.8 393.4l-42.9 23.8-13-60.6 26.6-15.7M180.8 393.4l42.8 23.8 13-60.6-26.6-15.7"/>
  <path fill="#2a2f4f" d="M238.3 438.4h13.5L223 508.5l-4.6.8c-8.6-1.3-17-3-25.2-5l43.4-153 29.3 14.9zm0 0M165.6 495.6c-14.2-5.4-27.9-12-40.8-19.7l-15.4-37.5H123l-27.7-72.2 29.6-13.8zm0 0"/>
  <path fill="#eab599" d="M214.7 317.8v41.7a34 34 0 0 1-67.9 0v-41.7zm0 0"/>
  <path fill="#f6caae" d="M214.7 356.8v2.7a34 34 0 0 1-23.9 32.4 34 34 0 0 1-23.6-28 113.5 113.5 0 0 0 25.7-1.3c7.5-1.2 14.8-3.2 21.8-5.8zm0 0M87.7 249.5a31.6 31.6 0 1 1-63.2 0 31.6 31.6 0 0 1 63.2 0zm0 0"/>
  <path fill="#eab599" d="M87.7 249.5a31.6 31.6 0 0 1-26.5 31.2 117.4 117.4 0 0 1 0-62.3 31.6 31.6 0 0 1 26.5 31.1zm0 0"/>
  <path fill="#eab599" d="M67.4 249.5a11.3 11.3 0 1 1-22.6 0 11.3 11.3 0 0 1 22.6 0zm0 0"/>
  <path fill="#f6caae" d="M273.9 249.5a31.6 31.6 0 1 0 63.1 0 31.6 31.6 0 0 0-63.1 0zm0 0"/>
  <path fill="#eab599" d="M273.9 249.5a31.6 31.6 0 0 0 26.5 31.2 117.4 117.4 0 0 0 0-62.3 31.6 31.6 0 0 0-26.5 31.1zm0 0"/>
  <path fill="#eab599" d="M298.2 188v44.8c0 58.4-42.7 106.9-98.6 115.9h-.5a117.4 117.4 0 0 1-135.7-116v-44.9A117.5 117.5 0 0 1 180.7 70.6 117.1 117.1 0 0 1 298.2 188zm0 0"/>
  <path fill="#eab599" d="M316.7 249.5a11.3 11.3 0 1 1-22.5 0 11.3 11.3 0 0 1 22.5 0zm0 0"/>
  <path fill="#f6caae" d="M298.2 188v44.8c0 58.4-42.7 106.9-98.6 115.9h-.5a117.5 117.5 0 0 1-99.2-116V188c0-58.6 43-107.2 99.2-116a117.5 117.5 0 0 1 99.1 116zm0 0"/>
  <path fill="#eab599" d="M149.6 208h78.2v42.5h-78.2zm0 0"/>
  <path fill="#dde8ed" d="M102 222.4a33 33 0 0 0 35 32.5 33 33 0 0 0 32.5-33v.6V212l-.4-13c0-1.7-1.2-3.3-2.8-3.9a92.7 92.7 0 0 0-61.4.2 4.2 4.2 0 0 0-2.8 4V223"/>
  <path fill="#3d4159" d="M107.3 223H96.8v-23.7c0-4 2.6-7.6 6.4-9 20.9-7.3 43.9-7.4 64.8 0a9.5 9.5 0 0 1 6.4 8.6l.3 13.1v10.5h-10.4V212l-.4-12.2a87.8 87.8 0 0 0-56.6 0zm0 0"/>
  <path fill="#ffe152" d="M135.8 260.1h-1.2a38 38 0 0 1-37.8-37.6h10.5a27.6 27.6 0 0 0 29.7 27.2c15-.2 27.3-12.7 27.3-27.8h10.4c0 20.8-16.9 38-37.6 38.2h-1.3zm0 0"/>
  <path fill="#dde8ed" d="M194.5 222.4a33 33 0 0 0 35 32.5 33 33 0 0 0 32.5-33v.6V212l-.4-13c0-1.7-1.2-3.3-2.8-3.9a92.7 92.7 0 0 0-61.4.2 4.2 4.2 0 0 0-2.9 4V223"/>
  <path fill="#3d4159" d="M199.8 223h-10.5v-23.7c0-4 2.6-7.6 6.3-9 21-7.3 44-7.4 64.9 0a9.5 9.5 0 0 1 6.3 8.6l.4 13.1v10.5h-10.5V212l-.3-12.2a87.8 87.8 0 0 0-56.6 0v23zm0 0"/>
  <path fill="#ffe152" d="M228.3 260.1H227a38 38 0 0 1-37.8-37.6h10.5a27.6 27.6 0 0 0 29.6 27.2c15-.2 27.3-12.7 27.3-27.8h10.5c0 20.8-16.9 38-37.6 38.2h-1.3zm0 0"/>
  <g fill="#3d4159">
    <path d="M169.1 199h25.4v10.5h-25.4zm0 0M298.2 189v11l-28.4 9-6.3 2-3.3-9.8 8-2.7zm0 0M103.7 201.2l-3.3 9.9-7.2-2.4-29.9-9.9v-11l31.5 10.4zm0 0M155.8 220.7a13.3 13.3 0 1 1-26.7 0 13.3 13.3 0 0 1 26.7 0zm0 0M232.4 220.7a13.3 13.3 0 1 1-26.6 0 13.3 13.3 0 0 1 26.6 0zm0 0"/>
  </g>
  <path fill="#fff" d="M153 218.3a5.7 5.7 0 1 1-11.4 0 5.7 5.7 0 0 1 11.5 0zm0 0M230.4 218.3a5.7 5.7 0 1 1-11.4 0 5.7 5.7 0 0 1 11.4 0zm0 0"/>
  <path fill="#eab599" d="M196.4 256.3h-29.1a5.7 5.7 0 1 1 0-11.5h29a5.7 5.7 0 0 1 0 11.5zm0 0M"/>
  <path fill="#f2f0ec" d="M142 276.5a38.7 38.7 0 0 0 77.4 0"/>
  <path fill="#2a2f4f" d="M298.2 147.5v45.8h-21.8v-36l-157.8-29.2-33.4-6.2v71.4H63.3v-45.8A94.5 94.5 0 0 1 158 52.9h49.5a94.5 94.5 0 0 1 90.8 94.6zm0 0"/>
  <path fill="#3d4159" d="M298.2 147.5v45.8h-21.8v-36l-157.8-29.2A94.6 94.6 0 0 1 207.4 53a94.5 94.5 0 0 1 90.8 94.5zm0 0"/>
  <path fill="#e8c934" d="M352.3 380.4H381v89.7h-28.7zm0 0"/>
  <path fill="#ffe152" d="M381 414v56.1h-15.8v-41a15 15 0 0 1 15-15h.8zm0 0M510.6 283a254 254 0 0 1-11.7 54 96.4 96.4 0 0 1-9 12.4 69.7 69.7 0 0 1-53.1 26.3 67 67 0 0 1-17.5-2.4l5.5-20.3c24.3 6.6 41.3-8 49.2-17.3 14.6-17 19.9-39.8 15.5-49.5-3.1-7-8.3-10.5-16.3-10.8a38.6 38.6 0 0 0-13.7 2.2l-7.7-19.5c1-.4 10.2-4 21.3-3.7a37.9 37.9 0 0 1 37.5 28.5zm0 0"/>
  <path fill="#e8c934" d="M296.5 375.7a69.7 69.7 0 0 1-53.2-26.3c-19-22.3-27-53.2-18.7-71.8a37.9 37.9 0 0 1 35.5-23.2 59.2 59.2 0 0 1 21.4 3.7l-3.9 9.8-3.9 9.7s-6.5-2.4-13.7-2.2c-8 .3-13.1 3.7-16.3 10.8-4.3 9.7 1 32.4 15.6 49.5 8 9.3 24.8 23.9 49.2 17.3l5.5 20.3a67 67 0 0 1-17.5 2.4zm0 0"/>
  <path fill="#e8c934" d="M465.5 239.8c0 8.6-.4 17-1.2 25.3-6.2 68.3-37.5 123-77.7 136.7a61.2 61.2 0 0 1-20 3.4c-54.5 0-98.8-74-98.8-165.4zm0 0"/>
  <path fill="#ffe152" d="M464.3 265c-6.2 68.4-37.5 123-77.7 136.8-36.3-12.4-65.4-58.3-75.2-117.6-1.7-10 6-19.1 16.1-19.1zm0 0"/>
  <path fill="#e8c934" d="M483.7 241.5a8.1 8.1 0 0 1-8.2 8.1H262a8.2 8.2 0 0 1 0-16.3h213.5c4.5 0 8.2 3.7 8.2 8.2zm0 0"/>
  <path fill="#ffe152" d="M483.7 241.5a8.1 8.1 0 0 1-8.2 8.1H313.1a8.2 8.2 0 0 1 0-16.3h162.4c4.5 0 8.2 3.7 8.2 8.2zm0 0"/>
  <path fill="#e8c934" d="M366.6 276.8l12 24.3 26.9 4-19.4 18.8 4.5 26.8-24-12.7-24 12.7 4.6-26.8-19.4-18.9 26.8-3.9zm0 0"/>
  <path fill="#eab599" d="M394.4 439.4v32c-7.9 5.1-16 9.7-24.5 14l-2.4 1.1c-4.2 2-8.5 4-12.8 5.8a26.6 26.6 0 0 1-13.5-23.2v-29.7a26.7 26.7 0 0 1 53.2 0zm0 0"/>
  <path fill="#f6caae" d="M394.4 439.4v32c-7.9 5.1-16 9.7-24.5 14l-2.4 1.1c-4-4.6-6.5-10.7-6.5-17.4v-29.7c0-11.2 7-20.8 16.7-24.8a26.5 26.5 0 0 1 16.7 24.8zm0 0"/>
</svg>
