<svg xmlns="http://www.w3.org/2000/svg" viewBox="0 0 512 512">
  <path fill="#713775" d="M512 256a255 255 0 0 1-68.6 174.4l-.1.1-6.3 6.5a255.2 255.2 0 0 1-181 75 255 255 0 0 1-176.6-70.7l-8.7-8.7A255 255 0 0 1 0 256c0-67.4 26-128.7 68.6-174.4l.1-.1L75 75A255.2 255.2 0 0 1 256 0c76 0 144.3 33.1 191.2 85.7A255 255 0 0 1 512 256zm0 0"/>
  <path fill="#66baed" d="M511.4 273.8a255 255 0 0 1-68 156.6l-.1.1-6.3 6.5a255.2 255.2 0 0 1-181 75 255 255 0 0 1-181.1-75.1l298.4-298.4 1.4-1.4zm0 0"/>
  <path fill="#f74f4f" d="M245.4 423.2a62 62 0 0 1-107-49.7l-63.5 63.4A255 255 0 0 1 0 256c0-67.4 26-128.7 68.6-174.4l.1-.1 6.3-6.3 62.2 62.2A61.8 61.8 0 0 0 90 244.7 62.2 62.2 0 0 0 193.6 194l62.1 62.2h.1l-63.6 63.6a61.9 61.9 0 0 1 53.2 103.5zm0 0"/>
  <path fill="#ffe152" d="M512 256a255 255 0 0 1-68.6 174.4l-.1.1-6.7 6.7-62.2-62.3a61.8 61.8 0 0 0 47.4-107.3A62.2 62.2 0 0 0 318 318.5l-62.2-62.3 63.6-63.5h-.3a61.8 61.8 0 0 1-52.8-103.6 62 62 0 0 1 107 49.4v.4l1.5-1.6 62-62 10.4 10.4A255 255 0 0 1 512 256zm0 0"/>
</svg>
