<svg xmlns="http://www.w3.org/2000/svg" viewBox="0 0 512 512">
  <path fill="#66baed" d="M512 256a256 256 0 1 1-512 0 256 256 0 0 1 512 0zm0 0"/>
  <path fill="#3d4159" d="M154.3 0H480A32 32 0 0 1 512 32v307.1a32 32 0 0 1-32 32.1H154.2a32 32 0 0 1-32-32V32a32 32 0 0 1 32-32.1zm0 0"/>
  <path fill="#f2f0ec" d="M154.3 350.3c-6.1 0-11.1-5-11.1-11.1V32c0-6.2 5-11.2 11.1-11.2H480c6.2 0 11.2 5 11.2 11.2v307c0 6.2-5 11.2-11.2 11.2zm0 0"/>
  <g fill="#854f89">
    <path d="M407.2 278.8c2.6-3 7.2-3.4 10.3-.7l12 10.3 10.3-9a7.3 7.3 0 0 1 9.6 11l-8.7 7.6 15.3 13.3a7.3 7.3 0 1 1-9.5 11l-17-14.6-10.7 9.3a7.3 7.3 0 0 1-10.3-.7c-2.6-3-2.3-7.7.8-10.3l9-8-10.4-8.9a7.3 7.3 0 0 1-.7-10.3zm0 0M375.8 92.1a7.3 7.3 0 1 1-10.5 10l-26.6-27.8a7.3 7.3 0 0 1 1.2-11.1l32-21.3a7.3 7.3 0 1 1 8 12.2l-14 9.3a99.7 99.7 0 0 1 78 38.6c14.7 19 18.7 38 18.8 38.8a7.3 7.3 0 0 1-14.3 3 90 90 0 0 0-16-33c-16.5-21.2-40-32.3-70-32.9zm0 0M434.1 220.4a28.5 28.5 0 0 0-9.5 21.3c0 4 3.3 7.3 7.3 7.3h42.5c4 0 7.3-3.3 7.3-7.3 0-8.5-3.7-16-9.5-21.3a28.5 28.5 0 0 0-19-49.8 28.6 28.6 0 0 0-19 49.8zm19 7.3c5 0 9.5 2.7 12 6.6h-23.8a14 14 0 0 1 11.8-6.6zm0-14.6a14 14 0 1 1 0-28 14 14 0 0 1 0 28zm0 0M234.2 314.8l26.3-15.9a7.3 7.3 0 0 1 7.6 0l22.5 13.6 22.5-13.6a7.3 7.3 0 0 1 7.6 0l22.5 13.6 22.5-13.6a7.3 7.3 0 0 1 7.6 12.5l-26.3 16a7.3 7.3 0 0 1-7.6 0L317 313.6l-22.5 13.6a7.3 7.3 0 0 1-7.6 0l-22.5-13.6-22.5 13.6a7.3 7.3 0 1 1-7.6-12.5zm0 0M336 186.9c0 7.6 3 14.8 8.4 20.2l15 15a7.3 7.3 0 0 0 10.4 0l15-15a28.4 28.4 0 0 0 0-40.4 28.4 28.4 0 0 0-40.4 0 28.4 28.4 0 0 0-8.3 20.2zm14.7 0a13.8 13.8 0 0 1 14-14 13.8 13.8 0 0 1 13.9 14c0 3.7-1.5 7.2-4.1 9.8l-9.9 9.9-9.8-9.9c-2.7-2.6-4.1-6.1-4.1-9.8zm0 0"/>
  </g>
  <path fill="#dd3033" d="M306.9 449.6v29.2a254.1 254.1 0 0 1-88.5 30.4 254.8 254.8 0 0 1-159-89.3 95.2 95.2 0 0 1 90.4-65.5h62a95.2 95.2 0 0 1 95.1 95.1zm0 0"/>
  <path fill="#f74f4f" d="M306.9 449.6v57.3a257.5 257.5 0 0 1-203.7-45.5v-11.8a95.1 95.1 0 0 1 95.2-95.2h13.3a95.3 95.3 0 0 1 95.1 95.1zm0 0"/>
  <path fill="#d3a489" d="M87.7 249.5a31.6 31.6 0 1 1-63.2 0 31.6 31.6 0 0 1 63.2 0zm0 0"/>
  <path fill="#ffe152" d="M206.3 388.8l-25.5 41-25.6-41"/>
  <path fill="#ffe152" d="M203.2 506.5c-14.4-3-28.3-7.2-41.7-12.5l19.3-75zm0 0"/>
  <path fill="#bf8e75" d="M87.7 249.5A31.6 31.6 0 0 1 61 280.7a117.5 117.5 0 0 1 0-62.3 31.6 31.6 0 0 1 26.6 31.1zm0 0"/>
  <path fill="#bf8e75" d="M67.4 249.5a11.3 11.3 0 1 1-22.6 0 11.3 11.3 0 0 1 22.6 0zm0 0"/>
  <path fill="#dd3033" d="M180.8 393.4l-42.9 23.8-13-60.6 26.6-15.7M180.8 393.4l42.8 23.8 13-60.6-26.6-15.7"/>
  <path fill="#d3a489" d="M273.9 249.5a31.6 31.6 0 1 0 63.1 0 31.6 31.6 0 0 0-63.1 0zm0 0"/>
  <path fill="#bf8e75" d="M273.9 249.5a31.6 31.6 0 0 0 26.5 31.2 117.5 117.5 0 0 0 0-62.3 31.6 31.6 0 0 0-26.5 31.1zm0 0"/>
  <path fill="#bf8e75" d="M316.7 249.5a11.3 11.3 0 1 1-22.5 0 11.3 11.3 0 0 1 22.5 0zm0 0"/>
  <path fill="#bf8e75" d="M298.2 232.8a117.5 117.5 0 0 1-234.9 0C63.3 202 85.7 156 105 135c21.5-23.3 41.6-19.8 75.8-19.8a117.5 117.5 0 0 1 117.4 117.4zm0 0"/>
  <path fill="#bf8e75" d="M214.7 317.8v41.7a34 34 0 0 1-67.9 0v-41.7zm0 0"/>
  <path fill="#d3a489" d="M214.7 356.8v2.7a34 34 0 0 1-23.9 32.4 34 34 0 0 1-23.6-28 110.5 110.5 0 0 0 25.7-1.3c7.5-1.2 14.8-3.2 21.8-5.8zm0 0M298.2 232.8c0 58.4-42.7 106.9-98.6 115.9a117.5 117.5 0 0 1 0-231.9 117.5 117.5 0 0 1 98.6 116zm0 0"/>
  <path fill="#bf8e75" d="M180.8 295.8c-9.9 0-19.7-2.4-28.7-7.4a5.2 5.2 0 0 1 5-9.1 48.7 48.7 0 0 0 47.3 0 5.2 5.2 0 0 1 5 9.1c-9 5-18.8 7.4-28.6 7.4zm0 0"/>
  <path fill="#3d4159" d="M155.8 226a13.3 13.3 0 1 1-26.7 0 13.3 13.3 0 0 1 26.7 0zm0 0M232.4 226a13.3 13.3 0 1 1-26.6 0 13.3 13.3 0 0 1 26.6 0zm0 0"/>
  <path fill="#fff" d="M153 223.6a5.7 5.7 0 1 1-11.4 0 5.7 5.7 0 0 1 11.4 0zm0 0M230.4 223.6a5.7 5.7 0 1 1-11.5 0 5.7 5.7 0 0 1 11.5 0zm0 0"/>
  <path fill="#bf8e75" d="M194 259.5h-26.6a5.7 5.7 0 0 1 0-11.5h26.7a5.7 5.7 0 1 1 0 11.5zm0 0"/>
  <path fill="#dd3033" d="M219.4 446.5h51.2V462h-51.2zm0 0"/>
  <path fill="#2a2f4f" d="M173.9 81.8a71.2 71.2 0 0 1 66 67.4l.3 6.8h20.4l11 73.3 26.8-8.3-3.6-71.8a71.2 71.2 0 0 0-71.4-67.6zm0 0"/>
  <path fill="#3d4159" d="M292.5 53.4A72.5 72.5 0 1 1 190 156zm0 0"/>
  <path fill="#3d4159" d="M190 156h-89.1l-11 73.3-26.7-8.3 3.5-71.8a71.2 71.2 0 0 1 71.4-67.6l128.6.5 17 30.6"/>
  <path fill="#2a2f4f" d="M187.6 81.8a71.2 71.2 0 0 0-66 67.4l-.3 6.8H101l-11 73.3-26.7-8.3 3.5-71.8a71.2 71.2 0 0 1 71.4-67.6zm0 0"/>
  <path fill="#dd3033" d="M229.1 510.6c15.3-29.3 52.8-107.7 43.7-134a95.3 95.3 0 0 1 23.6 29.6zm0 0"/>
  <path fill="#3d4159" d="M380 248.4L251.5 512c-7.5-.2-15-.6-22.4-1.4l139.5-267.9a6.4 6.4 0 0 1 11.4 5.7zm0 0"/>
</svg>
