<svg style="position: absolute;">
    <clipPath id="arrow-down" clipPathUnits="objectBoundingBox">
        <path d="M 0,0 Q .40,0,.50,.05 Q .60,0,1.00,0 V .95 Q .60,.95,.50,1.00 Q .40,.95,0,.95 z"></path>
    </clipPath>
    <clipPath id="arrow-down-more" clipPathUnits="objectBoundingBox">
        <path d="M 0,0 Q .40,0,.50,.10 Q .60,0,1.00,0 V .90 Q .60,.90,.50,1.00 Q .40,.90,0,.90 z"></path>
    </clipPath>
    <clipPath id="arrow-down-most" clipPathUnits="objectBoundingBox">
        <path d="M0,0 H.25 Q.40,0 .50,.15 Q.60,0 .75,0 H1 V.85 H.75 Q.60,.85 .50,1.00 Q.40,.85 .25,.85 H0 z"></path>
    </clipPath>
    <clipPath id="arrow-up" clipPathUnits="objectBoundingBox">
        <path d="M 0,.05 Q .40,.05,.50,0 Q .60,.05,1.00,.05 V 1.00 Q .60,1.00,.50,.95 Q .40,1.00,0,1.00 z"></path>
    </clipPath>
    <clipPath id="arrow-squared" clipPathUnits="objectBoundingBox">
        <path d="M 0,0 H .45 l .05,.05 l .05,-.05 H 1.00 V .95 h -.45 l -.05,.05 l -.05,-.05 H 0 z"></path>
    </clipPath>
    <clipPath id="bend-down" clipPathUnits="objectBoundingBox">
        <path d="M 0,0 Q .50,.10 1.00,0 V .95 Q .50,1.05,0,.95 z"></path>
    </clipPath>
    <clipPath id="convex" clipPathUnits="objectBoundingBox">
        <path d="M 0,.05 Q .50,-.05 1.00,.05 V .95 Q .50,1.05,0,.95 z"></path>
    </clipPath>
    <clipPath id="concave" clipPathUnits="objectBoundingBox">
        <path d="M 0,0 Q .50,.15 1.00,0 V 1.00 Q .50,.85,0,1.00 z"></path>
    </clipPath>
    <clipPath id="concave-more" clipPathUnits="objectBoundingBox">
        <path d="M 0,0 Q .50,.20 1.00,0 V 1.00 Q .50,.80,0,1.00 z"></path>
    </clipPath>
    <clipPath id="concave-most" clipPathUnits="objectBoundingBox">
        <path d="M 0,0 Q .50,.25 1.00,0 V 1.00 Q .50,.75,0,1.00 z"></path>
    </clipPath>
    <clipPath id="cut-topleft" clipPathUnits="objectBoundingBox">
        <path d="M0,.1 L1,0 V1 H0 Z"></path>
    </clipPath>
    <clipPath id="cut-topright-bottomleft" clipPathUnits="objectBoundingBox">
        <path d="M0,0 L1,.2 V1 L0,.8 Z"></path>
    </clipPath>
    <clipPath id="wave-high" clipPathUnits="objectBoundingBox">
        <path
            transform="scale(.01)"
            d="M 45.464844 0.00390625 C 45.165294 0.0172442 45.011719 0.06640625 45.011719 0.06640625 C 37.995029 12.604445 24.806947 9.5793097 19.046875 5.2734375 C 13.386257 1.050594 10.935547 0.82421875 10.935547 0.82421875 C 9.915376 6.5416916 -1.1842379e-015 8.9023437 0 8.9023438 C 1.9656552 9.1988627 6.7684331 8.0493434 9.9160156 6.3886719 C 15.514427 3.4350731 17.766595 9.9111018 28.988281 10.480469 C 37.348556 10.907507 43.020263 6.0438917 45.160156 5.3203125 C 50.23605 3.6003251 56.00975 10.516322 65.800781 10.943359 C 72.195403 11.228045 75.26675 9.0814292 78.712891 7.0292969 C 82.358031 4.8466991 87.334742 7.1239696 90.855469 8.9863281 C 96.354426 11.904361 100 9.7207031 100 9.7207031 C 95.558655 9.7444272 92.548022 8.6771124 87.447266 4.6796875 C 83.20492 1.358318 80.119141 1.0019531 80.119141 1.0019531 C 71.559866 15.86495 56.121623 6.9702111 51.804688 3.1269531 C 48.566914 0.24451526 46.363495 -0.03611895 45.464844 0.00390625 z M 46.019531 6.9570312 C 42.498705 7.1349185 36.975276 12.247442 29.460938 11.808594 C 20.341798 11.274804 18.395358 7.1967901 12.541016 7.0878906 C 8.2435675 7.0079498 7.5105004 9.3526315 0 10.089844 L 0 23.589844 L 0 82.554688 L 0 88.794922 C 8.474703 87.362477 11.633398 92.413723 17.230469 92.355469 C 22.857391 92.296913 24.982112 87.218484 33.466797 87.728516 C 41.814688 88.214892 49.277816 93.292085 53.980469 93.042969 C 57.501295 92.865082 63.024724 87.752558 70.539062 88.191406 C 79.658203 88.725196 81.604642 92.80321 87.458984 92.912109 C 91.756432 92.99205 92.4895 90.647368 100 89.910156 L 100 76.410156 L 100 17.445312 L 100 11.205078 C 91.525297 12.637523 88.366602 7.5862775 82.769531 7.6445312 C 77.142609 7.7030876 75.017888 12.781516 66.533203 12.271484 C 58.185312 11.785108 50.722184 6.7079151 46.019531 6.9570312 z M 33.039062 89.03125 C 27.420008 89.040028 24.517867 91.046829 21.287109 92.970703 C 17.641969 95.153301 12.665258 92.876031 9.1445312 91.013672 C 3.6455742 88.095639 0 90.279297 0 90.279297 C 4.441345 90.255573 7.4519784 91.322887 12.552734 95.320312 C 16.79508 98.641683 19.880859 98.998047 19.880859 98.998047 C 28.440134 84.135051 43.878377 93.029789 48.195312 96.873047 C 51.433086 99.755485 53.636505 100.03612 54.535156 99.996094 C 54.834706 99.982756 54.988281 99.933594 54.988281 99.933594 C 62.004971 87.395556 75.193053 90.42069 80.953125 94.726562 C 86.613743 98.949405 89.064453 99.175781 89.064453 99.175781 C 90.084624 93.458309 100 91.097656 100 91.097656 C 98.034345 90.801137 93.231567 91.950657 90.083984 93.611328 C 84.485573 96.564927 82.233405 90.088898 71.011719 89.519531 C 62.651444 89.092493 56.979737 93.956108 54.839844 94.679688 C 49.76395 96.399674 43.99025 89.483678 34.199219 89.056641 C 33.799555 89.038848 33.413666 89.030665 33.039062 89.03125 z"></path>
    </clipPath>
    <clipPath id="wave" clipPathUnits="objectBoundingBox">
        <path
            transform="scale(.01)"
            d="M 45.464844 0.001953125 C 45.165294 0.008621125 45.011719 0.033203125 45.011719 0.033203125 C 37.995029 6.3022951 24.806947 4.7896798 19.046875 2.6367188 C 13.386257 0.52527268 10.935547 0.41210936 10.935547 0.41210938 C 9.9153758 3.2708794 0 4.4511719 0 4.4511719 C 1.9656552 4.5994329 6.7684331 4.0237044 9.9160156 3.1933594 C 15.514427 1.7165424 17.766595 4.9555484 28.988281 5.2402344 C 37.348556 5.4537574 43.020263 3.0219503 45.160156 2.6601562 C 50.23605 1.8001533 56.00975 5.2571821 65.800781 5.4707031 C 72.195403 5.6130481 75.26675 4.5397519 78.712891 3.5136719 C 82.358031 2.4223599 87.334742 3.5609955 90.855469 4.4921875 C 96.354426 5.9512195 100 4.859375 100 4.859375 C 95.558655 4.871237 92.548022 4.3385808 87.447266 2.3398438 C 83.20492 0.67913968 80.119141 0.5 80.119141 0.5 C 71.559866 7.931586 56.121621 3.484151 51.804688 1.5625 C 48.566913 0.12126398 46.363495 -0.018059875 45.464844 0.001953125 z M 46.019531 3.4785156 C 42.498705 3.5674606 36.975276 6.1237249 29.460938 5.9042969 C 20.341798 5.6373989 18.395358 3.5974188 12.541016 3.5429688 C 8.2435667 3.5029978 7.5105004 4.6763109 0 5.0449219 L 0 11.794922 L 0 29.882812 L 0 41.277344 L 0 44.398438 L 0 45.140625 L 0 54.451172 L 0 55.044922 L 0 61.794922 L 0 70.117188 L 0 91.277344 L 0 94.398438 C 8.474703 93.682207 11.633398 96.206863 17.230469 96.177734 C 22.857391 96.148457 24.982112 93.610215 33.466797 93.865234 C 41.814688 94.108425 49.277816 96.646044 53.980469 96.521484 C 57.501295 96.43254 63.024724 93.876277 70.539062 94.095703 C 79.658203 94.362601 81.604642 96.402581 87.458984 96.457031 C 91.756432 96.497003 92.4895 95.323689 100 94.955078 L 100 88.205078 L 100 70.117188 L 100 58.722656 L 100 55.601562 L 100 54.859375 L 100 45.548828 L 100 44.955078 L 100 38.205078 L 100 29.882812 L 100 8.7226562 L 100 5.6015625 C 91.525297 6.3177935 88.366602 3.7931376 82.769531 3.8222656 C 77.142609 3.8515446 75.017888 6.3897846 66.533203 6.1347656 C 58.185312 5.8915746 50.722184 3.3539556 46.019531 3.4785156 z M 33.039062 94.515625 C 27.420008 94.520014 24.517867 95.52438 21.287109 96.486328 C 17.641969 97.577639 12.665258 96.439004 9.1445312 95.507812 C 3.6455744 94.048779 0 95.140625 0 95.140625 C 4.441345 95.128762 7.4519792 95.661421 12.552734 97.660156 C 16.79508 99.320862 19.880859 99.5 19.880859 99.5 C 28.440134 92.068415 43.878377 96.515847 48.195312 98.4375 C 51.433087 99.878734 53.636505 100.01806 54.535156 99.998047 C 54.834706 99.991379 54.988281 99.966797 54.988281 99.966797 C 62.004971 93.697705 75.193053 95.210319 80.953125 97.363281 C 86.613743 99.474727 89.064453 99.587891 89.064453 99.587891 C 90.084624 96.729122 100 95.548828 100 95.548828 C 98.034345 95.400566 93.231567 95.976297 90.083984 96.806641 C 84.485573 98.283459 82.233405 95.044452 71.011719 94.759766 C 62.651444 94.546243 56.979737 96.97805 54.839844 97.339844 C 49.76395 98.199847 43.99025 94.742817 34.199219 94.529297 C 33.799555 94.5204 33.413666 94.515333 33.039062 94.515625 z"></path>
    </clipPath>
</svg>
