<?xml version="1.0" encoding="UTF-8" standalone="no"?>
<svg
   xmlns:dc="http://purl.org/dc/elements/1.1/"
   xmlns:cc="http://creativecommons.org/ns#"
   xmlns:rdf="http://www.w3.org/1999/02/22-rdf-syntax-ns#"
   xmlns:svg="http://www.w3.org/2000/svg"
   xmlns="http://www.w3.org/2000/svg"
   xmlns:sodipodi="http://sodipodi.sourceforge.net/DTD/sodipodi-0.dtd"
   xmlns:inkscape="http://www.inkscape.org/namespaces/inkscape"
   version="1.1"
   x="0px"
   y="0px"
   viewBox="0 0 599.99998 224.23729"
   xml:space="preserve"
   id="svg8"
   sodipodi:docname="orca-complete.svg"
   inkscape:version="0.92.2 (5c3e80d, 2017-08-06)"
   width="600"
   height="224.23729"
   inkscape:export-filename="C:\Users\ccjmn\Desktop\orca-logo\orca-complete.png"
   inkscape:export-xdpi="160"
   inkscape:export-ydpi="160"><metadata
     id="metadata14"><rdf:RDF><cc:Work
         rdf:about=""><dc:format>image/svg+xml</dc:format><dc:type
           rdf:resource="http://purl.org/dc/dcmitype/StillImage" /><dc:title></dc:title></cc:Work></rdf:RDF></metadata><defs
     id="defs12" /><sodipodi:namedview
     pagecolor="#ffffff"
     bordercolor="#666666"
     borderopacity="1"
     objecttolerance="10"
     gridtolerance="10"
     guidetolerance="10"
     inkscape:pageopacity="0"
     inkscape:pageshadow="2"
     inkscape:window-width="1920"
     inkscape:window-height="1057"
     id="namedview10"
     showgrid="false"
     inkscape:zoom="1"
     inkscape:cx="327.9852"
     inkscape:cy="137.65616"
     inkscape:window-x="1912"
     inkscape:window-y="-8"
     inkscape:window-maximized="1"
     inkscape:current-layer="svg8"
     fit-margin-top="0"
     fit-margin-left="0"
     fit-margin-right="0"
     fit-margin-bottom="0" /><g
     id="g1011"
     transform="translate(-146,147.80287)"><path
       style="fill:#fafafa;fill-opacity:1;stroke-width:2.79778886"
       d="m 335.57343,-142.19277 c -10.38992,0.14353 -20.80855,1.50818 -31.03797,4.13111 -10.07203,2.79778 -19.58561,6.43709 -29.09809,10.63377 -1.95845,0.83934 -3.91581,1.6754 -5.87426,2.23496 -7.43174,-0.002 -15.01806,-1.41691 -23.22383,-0.55737 -20.70364,1.11911 -41.12531,6.9912 -59.31094,17.62279 -8.95292,5.87536 -17.90803,12.594416 -26.02162,19.868667 8.11359,-1.678674 16.50805,-2.802154 24.90141,-3.081933 13.98895,0 27.70139,3.917996 39.73188,10.912468 -5.3158,8.393366 -9.51249,17.629342 -12.59005,27.141824 12.56996,-12.831834 30.52801,-22.473629 48.83562,-23.88503 -3.5827,0.323424 -7.19795,1.097489 -10.5081,2.338783 -27.97789,9.512482 -46.72525,36.649941 -59.59508,61.830039 5.59558,-0.559557 11.19224,-1.67649 16.50804,-3.355164 -1.67867,46.163514 34.69477,85.051686 80.5785,87.010136 32.45435,0.83934 62.38742,-18.18345 74.97747,-48.119781 -10.35182,7.27425 -23.50034,7.551847 -33.85216,14.546321 -8.39336,6.15513 -14.82828,14.83046 -18.18563,24.62272 -16.65388,-10.61123 -42.56894,-27.60813 -45.73693,-52.6543828 -1.18514,-9.36987797 5.00561,-21.3401622 10.61688,-28.0550782 -0.70784,6.784162 0.17234,13.3993652 2.18745,18.77912123 2.38126,6.35730397 6.89731,12.11389377 12.53203,16.45298477 15.46984,-10.0310798 26.61323,-32.636989 30.47152,-47.412503 1.11912,-3.916904 1.68195,-7.830535 1.96173,-12.027218 0,-0.839336 0,0 0.27865,-3.917995 6.03977,-0.702469 8.94418,-1.092509 19.58453,-3.639308 20.66503,-5.481904 25.15615,-8.122344 42.84114,-16.524439 20.42649,-9.70455 35.99073,-27.683113 39.5999,-36.617152 -5.50096,-10.85265 -14.71777,-16.19718 -24.80768,-21.83587 -20.19654,-11.15619 -42.90658,-16.75803 -65.76443,-16.44247 z m -6.67689,160.838217 c -7.28429,4.649114 -13.76672,12.095318 -18.35019,19.662863 -2.91292,5.91239 -4.22712,10.76074 -4.84149,17.1146 5.22945,3.04369 4.35758,2.53631 5.22945,3.04369 3.17566,-7.34759 7.12208,-12.99556 12.06548,-18.11459 0.0252,-7.352 2.56145,-15.542503 5.89675,-21.706563 z"
       id="path885"
       inkscape:connector-curvature="0"
       sodipodi:nodetypes="scccccccccccccccccscscccccsccscccccc" /><path
       inkscape:export-ydpi="160"
       inkscape:export-xdpi="160"
       sodipodi:nodetypes="cccccscscscccccsccsccsccccccccccccccccccccc"
       inkscape:connector-curvature="0"
       id="path866"
       d="m 331.51882,-147.67909 c -22.6941,-0.0355 -43.73887,9.6562 -64.51306,16.83046 -43.11364,-5.11142 -89.27995,13.54049 -121.00576,49.561848 23.23189,-1.924403 47.49151,-8.989687 71.83681,3.044247 -5.4504,9.41537 -7.21673,17.742261 -10.5975,28.183971 -5.90929,8.001172 -9.85523,15.11939 -13.81757,22.411211 -2.85744,5.258445 -4.48514,7.176804 -10.742,21.4910742 10.4224,-1.360172 1.47259,-0.169265 11.89499,-1.529523 3.52653,-0.460236 0,0 8.51583,-1.524542 0.44582,8.56274403 0.0495,4.677034 0.44582,8.56274403 C 208.82801,51.22939 267.29891,89.66278 317.13097,72.1386 347.13564,63.31626 367.24248,36.25126 376.60038,7.5545092 363.46072,19.223554 344.44477,24.983418 329.4489,30.804274 331.38249,21.749985 337.24036,16.178097 339.88272,5.3605872 323.02639,15.241621 305.14099,27.501512 301.03823,48.10605 286.9334,36.69936 279.3265,32.02734 272.19941,15.161999 269.64547,9.1184112 270.94323,1.0297692 273.09509,-3.8091568 277.04364,7.8425692 283.21274,16.355653 291.6277,21.873815 303.89054,13.891864 311.00605,4.8407382 313.92188,0.15807923 318.44843,-7.1113308 327.53197,-20.525385 329.38223,-42.357622 c 38.72177,-6.635908 85.85158,-25.454114 102.04658,-61.573118 -9.35088,-17.04396 -24.56371,-25.51788 -37.58266,-31.19652 -22.07344,-9.62803 -41.04854,-13.43491 -62.32733,-12.55183 z m 69.51851,22.46977 c 7.89628,5.30721 22.15362,12.20979 23.84157,21.36061 -8.53529,15.322219 -24.3776,29.047961 -38.60075,35.994196 -17.69369,8.406208 -22.0929,11.011201 -42.73185,16.486194 -28.5882,6.464761 -15.7663,-3.156557 -22.26165,20.01082 -0.002,0.0084 -0.003,0.01399 -0.005,0.02238 -9.63978,19.819813 -15.69058,34.8763442 -30.25707,45.726862 -7.79073,-9.3097948 -13.20473,-27.230129 -13.53532,-35.677344 -5.7431,8.253716 -13.16597,17.9562052 -14.4153,27.5901972 5.05541,28.2902748 34.38634,47.5368648 48.4428,55.9396948 -8.79631,4.74039 -11.18254,6.52559 -22.6168,7.79169 -47.62581,-11.98261 -79.16075,-51.612051 -79.74306,-87.026541 -4.8952,1.545861 -11.08889,2.607385 -16.24575,3.19671 12.82305,-24.816749 31.3391,-51.161818 58.66613,-60.452995 0.008,-0.0017 -9.60341,10.751203 13.48674,-3.327969 -22.25341,-2.535205 -42.24853,13.485862 -50.56782,22.092682 3.5934,-8.842014 8.384,-18.345039 11.89615,-25.130913 -21.42846,-11.540758 -41.20844,-12.76941 -63.30051,-8.622869 41.60489,-25.984265 62.00197,-35.141565 106.47439,-35.338615 45.69474,-15.81891 96.21844,-11.96841 131.4731,-0.63479 z"
       style="fill:#337ab7;fill-opacity:1;stroke-width:2.79778886" /><path
       sodipodi:nodetypes="scccccccccccccccscscccccsccsssscssccscccccsccccccccccccccccccc"
       inkscape:connector-curvature="0"
       id="path2"
       d="m 335.57343,-142.19277 c -10.38992,0.14353 -20.80855,1.50818 -31.03797,4.13111 -13.18477,3.38359 -23.53704,8.91692 -34.97235,12.86873 -30.77319,-3.20684 -60.06556,4.21258 -82.53477,17.06542 -8.95292,5.87536 -17.90803,12.594416 -26.02162,19.868667 8.11359,-1.678674 16.50805,-2.802154 24.90141,-3.081933 13.98895,0 27.70139,3.917996 39.73188,10.912468 -5.3158,8.393366 -9.51249,17.629342 -12.59005,27.141824 12.56996,-12.831834 30.52801,-22.473629 48.83562,-23.88503 -3.5827,0.323424 -7.19795,1.097489 -10.5081,2.338783 -27.97789,9.512482 -46.72525,36.649941 -59.59508,61.830039 5.59558,-0.559557 11.19224,-1.67649 16.50804,-3.355164 -1.67867,46.163514 34.69477,85.051686 80.5785,87.010136 32.45435,0.83934 62.38742,-18.18345 74.97747,-48.119781 -10.35182,7.27425 -23.50034,7.551847 -33.85216,14.546321 -8.39336,6.15513 -14.82828,14.83046 -18.18563,24.62272 -16.65388,-10.61123 -42.56894,-27.60813 -45.73693,-52.6543828 -1.18514,-9.36987797 5.00561,-21.3401622 10.61688,-28.0550782 -0.70784,6.784162 0.17234,13.3993652 2.18745,18.77912123 2.38126,6.35730397 6.89731,12.11389377 12.53203,16.45298477 15.46984,-10.0310798 26.61323,-32.636989 30.47152,-47.412503 1.11912,-3.916904 1.68195,-7.830535 1.96173,-12.027218 0,-0.839336 0,0 0.27865,-3.917995 6.03977,-0.702469 8.94418,-1.092509 19.58453,-3.639308 20.66503,-5.481904 25.15615,-8.122344 42.84114,-16.524439 20.42649,-9.70455 35.99073,-27.683113 39.5999,-36.617152 -5.50096,-10.85265 -14.71777,-16.19718 -24.80768,-21.83587 -20.19654,-11.15619 -42.90658,-16.75803 -65.76443,-16.44247 z m 27.99429,20.36046 c 4.55689,2.16202 -2.35224,7.08655 -4.79231,8.09283 -16.15219,6.66117 -32.30105,10.69099 -47.07083,2.65689 -9.2942,-5.05566 14.59721,-13.02233 21.08746,-13.83165 10.17145,-1.33105 22.4294,-0.87795 30.77568,3.08193 z m 23.98885,16.15287 c 10.26876,-0.20984 20.49599,0.83933 30.56802,3.14751 -6.4349,8.113587 -13.98675,15.39002 -22.93967,21.824934 -14.26873,11.191155 -30.66503,18.584955 -48.02772,23.764501 -10.05469,2.999454 -20.3653,5.003286 -28.89474,10.667213 l 3.90126,-0.579562 c -2.51801,10.351819 -6.15514,20.144079 -11.19116,29.376782 -5.10076,9.9406552 -14.72999,22.1240742 -19.824,26.2460282 -2.24599,-2.236441 -4.75726,-6.009707 -6.19761,-8.33908897 -2.23824,-3.91690503 -3.17622,-8.29007203 -3.17622,-12.77529123 0,-8.118399 2.33797,-15.762154 7.09421,-22.197068 1.3989,-1.958452 3.07539,-3.638217 4.75406,-5.31689 1.11912,-0.839336 1.95846,-1.957361 2.79779,-3.076476 -27.13855,15.667617 -43.36355,44.7635282 -42.52421,75.818988 -6.15513,-9.232708 -8.9562,-20.421681 -7.5573,-31.3330558 1.11911,-7.274251 3.63712,-14.2698142 6.99447,-20.7047282 -10.35182,5.595577 -19.85994,11.1889722 -26.29485,21.5407902 -0.55192,-8.047251 0.49409,-18.2071692 1.49626,-23.4551492 2.51801,-1.678674 8.29273,-4.800335 10.53096,-6.479007 8.11359,-6.155136 15.11024,-13.987853 20.42604,-22.660998 5.48627,-8.337382 8.72625,-17.844212 10.91247,-26.300305 35.52478,-16.753502 80.12307,-27.686567 117.15194,-29.169127 z M 328.89654,18.645447 c -7.28429,4.649114 -13.76672,12.095318 -18.35019,19.662863 -2.91292,5.91239 -4.22712,10.76074 -4.84149,17.1146 5.22945,3.04369 4.35758,2.53631 5.22945,3.04369 3.17566,-7.34759 7.12208,-12.99556 12.06548,-18.11459 0.0252,-7.352 2.56145,-15.542503 5.89675,-21.706563 z"
       style="stroke-width:2.79778886" /></g><g
     id="g1006"
     transform="matrix(2.7977887,0,0,2.7977887,-430.85946,10.389937)"><path
       style="font-style:normal;font-variant:normal;font-weight:normal;font-stretch:normal;font-size:medium;line-height:1.25;font-family:'Dissolve Regular';-inkscape-font-specification:'Dissolve Regular, ';letter-spacing:0px;word-spacing:0px;fill:#337ab7;fill-opacity:1;stroke:none;stroke-width:1.21640027"
       d="m 235.83398,36.898438 c -0.42738,2.493757 -0.36513,4.909252 0.18946,7.242187 0.58657,2.338421 1.54258,4.443897 2.86718,6.316406 1.35112,1.90997 3.03564,3.514713 5.05079,4.814453 2.01516,1.299743 4.26991,2.162478 6.76367,2.589844 2.49376,0.427368 4.90534,0.363181 7.23828,-0.191406 2.33293,-0.554586 4.43843,-1.510604 6.31641,-2.867188 1.9045,-1.319124 3.50691,-2.986797 4.80664,-5.001953 1.29976,-2.01515 2.16247,-4.269914 2.58984,-6.763672 0.14329,-0.836144 0.21116,-1.658595 0.24414,-2.476562 -1.20135,-0.148345 -2.40044,-0.296927 -3.58398,-0.453125 -0.0162,0.765411 -0.0725,1.537269 -0.20703,2.322266 -0.33421,1.950245 -1.01762,3.725741 -2.04883,5.326171 -1.03668,1.632403 -2.32391,2.991952 -3.85938,4.078125 -1.5035,1.091659 -3.19563,1.855072 -5.08008,2.289063 -1.85792,0.471436 -3.79439,0.534636 -5.80859,0.189453 -1.98222,-0.339702 -3.78714,-1.044628 -5.41406,-2.113281 -1.60043,-1.03121 -2.94508,-2.314146 -4.03125,-3.84961 -1.05422,-1.52998 -1.81334,-3.238986 -2.2793,-5.128906 -0.43947,-1.852466 -0.49241,-3.754832 -0.1582,-5.705078 z m 42.32813,5.503906 v 5.302734 l 16.88281,10.41211 h 7.29688 L 282.39453,46.003906 h 6.61719 c 1.78406,0 3.48556,-0.309471 5.10742,-0.925781 1.39391,-0.557562 2.62274,-1.29248 3.70508,-2.185547 -2.55729,-0.133498 -5.1054,-0.299242 -7.64063,-0.490234 z m 28.27344,0.822265 c 0.23266,1.326508 0.59339,2.612634 1.11328,3.84961 0.97311,2.205742 2.2707,4.13476 3.89258,5.789062 1.6543,1.621867 3.58527,2.919457 5.79101,3.892578 2.23818,0.940687 4.62223,1.410157 7.15235,1.410157 v -3.501954 c -2.076,0 -4.00696,-0.405865 -5.79102,-1.216796 -1.75161,-0.810935 -3.29312,-1.881006 -4.62305,-3.210938 -1.2975,-1.362367 -2.31839,-2.936651 -3.06445,-4.720703 -0.30514,-0.729693 -0.53081,-1.475397 -0.71094,-2.232422 -1.25256,-0.01178 -2.50555,-0.02947 -3.75976,-0.05859 z"
       transform="translate(4)"
       id="path909"
       inkscape:connector-curvature="0" /><path
       style="font-style:normal;font-variant:normal;font-weight:normal;font-stretch:normal;font-size:medium;line-height:1.25;font-family:'Dissolve Regular';-inkscape-font-specification:'Dissolve Regular, ';letter-spacing:0px;word-spacing:0px;fill:#000000;fill-opacity:1;stroke:none;stroke-width:1.21640027"
       d="m 324.38477,21.675781 c -2.53012,0 -4.91417,0.485863 -7.15235,1.458985 -2.20574,0.940686 -4.13671,2.238275 -5.79101,3.892578 -1.62188,1.654307 -2.91947,3.583325 -3.89258,5.789062 -0.82014,1.923092 -1.26007,3.97698 -1.36524,6.146485 1.21773,0.03046 2.43398,0.04631 3.65039,0.06055 0.10211,-1.61783 0.46365,-3.169176 1.1211,-4.648438 0.81095,-1.784052 1.88101,-3.341944 3.21094,-4.671875 1.32994,-1.329932 2.87143,-2.383613 4.62304,-3.162109 1.78406,-0.810936 3.64946,-1.216797 5.59571,-1.216797 1.07043,0 2.14048,0.129172 3.21093,0.388672 1.10286,0.259496 2.15656,0.648967 3.16211,1.167968 1.038,0.486561 2.01169,1.103555 2.91992,1.84961 0.90825,0.746061 1.73638,1.605005 2.48243,2.578125 l 2.82031,-2.189453 c -1.6543,-2.270614 -3.76166,-4.072413 -6.32422,-5.402344 -2.53011,-1.362372 -5.28725,-2.041016 -8.27148,-2.041016 z m -48.65625,0.291016 v 3.503906 h 14.5 c 1.10289,0 2.15656,0.227515 3.1621,0.681641 1.03801,0.454119 1.94613,1.069155 2.72461,1.847656 0.7785,0.746056 1.39548,1.637785 1.84961,2.675781 0.48656,1.005556 0.72852,2.093973 0.72852,3.261719 0,1.265056 -0.2603,2.415128 -0.7793,3.453125 -0.21471,0.429427 -0.45991,0.82772 -0.72461,1.207031 1.3257,0.0729 2.65348,0.135367 3.98243,0.191406 0.0315,-0.06179 0.0691,-0.1192 0.0996,-0.18164 0.71362,-1.459681 1.07032,-3.01562 1.07032,-4.669922 0,-1.978677 -0.42032,-3.714909 -1.26368,-5.207031 -0.81092,-1.524552 -1.86656,-2.774926 -3.16406,-3.748047 -1.26505,-1.005557 -2.69182,-1.749767 -4.28125,-2.236328 -1.58943,-0.519 -3.12898,-0.779297 -4.62109,-0.779297 z m -18.88477,0.07031 -0.5918,3.453125 c 2.0142,0.345183 3.82145,1.033248 5.42188,2.064454 1.62692,1.068659 2.96727,2.368459 4.02148,3.898437 0.92331,1.305223 1.59674,2.74367 2.04883,4.300781 1.25116,0.167494 2.53111,0.321595 3.80274,0.480469 -0.0305,-0.14467 -0.0458,-0.291485 -0.0801,-0.435547 -0.55458,-2.33294 -1.5063,-4.455274 -2.85742,-6.365234 -1.3246,-1.87252 -2.99229,-3.474931 -5.00196,-4.806641 -2.01516,-1.299748 -4.26992,-2.162477 -6.76367,-2.589844 z"
       transform="translate(4)"
       id="path990"
       inkscape:connector-curvature="0" /><path
       style="fill:#337ab7;fill-opacity:1;stroke:none;stroke-width:1px;stroke-linecap:butt;stroke-linejoin:miter;stroke-opacity:1"
       d="m 361.67383,41.203125 c -1.27497,0.118064 -2.5973,0.229311 -3.92969,0.341797 l 6.47656,16.621094 h 4.23438 z M 347.375,42.3125 c -1.3421,0.08476 -2.72521,0.158403 -4.10938,0.234375 l -6.24218,15.619141 h 3.98828 z"
       id="path1015"
       inkscape:connector-curvature="0" /><path
       style="font-style:normal;font-variant:normal;font-weight:normal;font-stretch:normal;font-size:medium;line-height:1.25;font-family:'Dissolve Regular';-inkscape-font-specification:'Dissolve Regular, ';letter-spacing:0px;word-spacing:0px;fill:#000000;fill-opacity:1;stroke:none;stroke-width:1.21640027"
       d="m 351.57031,21.771484 -6.57422,16.447266 c 1.40391,-0.0812 2.76593,-0.1678 4.125,-0.257812 l 3.66602,-9.134766 3.35937,8.621094 c 1.31445,-0.105939 2.63684,-0.210467 3.89844,-0.322266 l -6.13867,-15.353516 z"
       id="path1017"
       inkscape:connector-curvature="0" /></g></svg>