<svg xmlns="http://www.w3.org/2000/svg" viewBox="0 0 300 235.7">
  <path fill="#fafafa" d="M199.3 5.9a139 139 0 0 0-32.7 4.3C156 13.2 146 17 136 21.4a53 53 0 0 1-6.1 2.4c-7.8 0-15.8-1.5-24.4-.6A138.3 138.3 0 0 0 43 41.7a232 232 0 0 0-27.3 20.9c8.5-1.8 17.3-3 26.1-3.3 14.7 0 29.2 4.2 41.8 11.5-5.6 8.8-10 18.5-13.2 28.5a83.5 83.5 0 0 1 51.3-25c-3.8.3-7.6 1-11 2.4-29.4 10-49.2 38.5-62.7 65 5.9-.6 11.8-1.8 17.4-3.5a88.7 88.7 0 0 0 84.7 91.4A83.1 83.1 0 0 0 229 179c-11 7.7-24.7 8-35.6 15.3a54 54 0 0 0-19.1 25.9c-17.5-11.2-44.8-29-48.1-55.3-1.2-9.9 5.3-22.5 11.2-29.5-.8 7.1.1 14 2.3 19.7a40 40 0 0 0 13.1 17.3c16.3-10.5 28-34.3 32-49.8 1.2-4.1 1.8-8.3 2.1-12.7l.3-4c6.4-.8 9.4-1.2 20.6-4 21.7-5.7 26.4-8.5 45-17.3 21.5-10.2 37.9-29 41.6-38.5-5.7-11.4-15.4-17-26-23A139 139 0 0 0 199.3 6zm-7 169a64.7 64.7 0 0 0-19.4 20.7 48 48 0 0 0-5 18l5.5 3.2a61.8 61.8 0 0 1 12.6-19c0-7.8 2.7-16.4 6.2-22.9z"/>
  <path fill="#337ab7" d="M195 .1c-23.9 0-46 10.2-67.8 17.7C81.9 12.4 33.3 32.1 0 70c24.4-2 50-9.4 75.5 3.2-5.7 10-7.6 18.7-11.1 29.6a188.8 188.8 0 0 0-14.6 23.6c-3 5.5-4.7 7.5-11.2 22.6l12.5-1.6c3.7-.5 0 0 9-1.6.4 9 0 4.9.4 9 5.5 54.5 67 94.9 119.4 76.5 31.5-9.3 52.6-37.7 62.5-68-13.8 12.4-33.8 18.4-49.6 24.5 2-9.5 8.2-15.3 11-26.7-17.7 10.4-36.5 23.3-40.8 45-14.9-12-22.9-17-30.4-34.7a27.5 27.5 0 0 1 1-20 50 50 0 0 0 19.5 27 78.7 78.7 0 0 0 23.4-22.8c4.8-7.6 14.3-21.7 16.2-44.7 40.7-7 90.3-26.7 107.3-64.7-9.8-17.9-25.8-26.8-39.5-32.8A141.4 141.4 0 0 0 195 .1zm73 23.6c8.4 5.6 23.3 12.9 25.1 22.5A99.5 99.5 0 0 1 252.5 84c-18.6 8.9-23.2 11.6-44.9 17.4-30 6.8-16.5-3.4-23.4 21-10.1 20.8-16.5 36.7-31.8 48a77.5 77.5 0 0 1-14.2-37.4c-6 8.7-13.8 18.8-15.2 29 5.4 29.7 36.2 50 51 58.8-9.3 5-11.8 6.8-23.8 8.2-50-12.6-83.2-54.3-83.8-91.5a97.3 97.3 0 0 1-17.1 3.4c13.5-26.1 33-53.8 61.7-63.6 0 0-10.1 11.3 14.1-3.5C101.8 71.1 80.7 88 72 97c3.8-9.3 8.8-19.2 12.5-26.4a94.5 94.5 0 0 0-66.5-9c43.7-27.4 65.1-37 111.9-37.2a228 228 0 0 1 138.2-.7z"/>
  <path d="M199.3 5.9a139 139 0 0 0-32.7 4.3c-13.8 3.6-24.7 9.4-36.7 13.6A146.1 146.1 0 0 0 43 41.7a232 232 0 0 0-27.3 20.9c8.5-1.8 17.3-3 26.1-3.3 14.7 0 29.2 4.2 41.8 11.5-5.6 8.8-10 18.5-13.2 28.5a83.5 83.5 0 0 1 51.3-25c-3.8.3-7.6 1-11 2.4-29.4 10-49.2 38.5-62.7 65 5.9-.6 11.8-1.8 17.4-3.5a88.7 88.7 0 0 0 84.7 91.4A83.1 83.1 0 0 0 229 179c-11 7.7-24.7 8-35.6 15.3a54 54 0 0 0-19.1 25.9c-17.5-11.2-44.8-29-48.1-55.3-1.2-9.9 5.3-22.5 11.2-29.5-.8 7.1.1 14 2.3 19.7a40 40 0 0 0 13.1 17.3c16.3-10.5 28-34.3 32-49.8 1.2-4.1 1.8-8.3 2.1-12.7l.3-4c6.4-.8 9.4-1.2 20.6-4 21.7-5.7 26.4-8.5 45-17.3 21.5-10.2 37.9-29 41.6-38.5-5.7-11.4-15.4-17-26-23A139 139 0 0 0 199.3 6zm29.4 21.4c4.8 2.3-2.5 7.4-5 8.5-17 7-34 11.2-49.5 2.8-9.8-5.3 15.3-13.7 22.1-14.5 10.7-1.4 23.6-1 32.4 3.2zm25.2 17c10.8-.2 21.5.9 32.1 3.3a150.1 150.1 0 0 1-74.6 48c-10.5 3-21.4 5.2-30.3 11.1l4-.6a126.4 126.4 0 0 1-11.7 30.9 107.7 107.7 0 0 1-20.8 27.6 54 54 0 0 1-6.6-8.8 26.7 26.7 0 0 1-3.3-13.4 38.7 38.7 0 0 1 12.5-29c1.1-.8 2-2 2.9-3.2a89.2 89.2 0 0 0-44.7 79.7 48.6 48.6 0 0 1-8-33c1.2-7.6 3.9-15 7.4-21.7C102 141.1 92 147 85.2 158c-.6-8.5.5-19.2 1.5-24.7 2.7-1.8 8.8-5 11.1-6.8a92.3 92.3 0 0 0 33-51.5 339.3 339.3 0 0 1 123-30.6zm-61.7 130.6a64.7 64.7 0 0 0-19.3 20.7 48 48 0 0 0-5 18l5.5 3.2a61.8 61.8 0 0 1 12.6-19c0-7.8 2.7-16.4 6.2-22.9z"/>
</svg>
