<svg xmlns="http://www.w3.org/2000/svg" width="900" height="500">
  <path fill="#d32339" d="M450 0a175 175 0 0 0-172.6 146.1 288 288 0 0 1 25.6 10.5 156.2 156.2 0 1 1 218.4 152.7c10 3.3 20.2 5.9 30.8 7.7A175 175 0 0 0 450 0zm42.6 26.1c7.9 19.5 34.9 18.4 53 44.9a28.2 28.2 0 0 1 17.6-12c-20.6-27.1-58.5-23.5-70.6-32.9zm15.8 44c-90.3.6-158.3 42.4-185.1 97 17 9.5 33.2 20.6 47.6 32.7 9.2 7.8 18.4 16 27.6 24.3 41.8-59.8 98.9-114.3 145.1-152.3a313.8 313.8 0 0 0-35.2-1.7zm27 15.3a713.7 713.7 0 0 0-129.6 145.1c16.4 14.8 33 29.5 50 42.5 12.6-50.8 28.7-89.5 79.6-187.6zm-259.8 74.8zm-.4 5.6v0zm-.1 4zm42.9 9.7zm-1 2.8zm-1.7 5.3zm-.9 3.4l-.4 1.7.4-1.7zm-1 4.7l-.4 1.5.3-1.5zm-.7 3.4zm-.7 4l-.1.9.1-1zm-.5 4.2l-.1 1.2v-1.2zm-.3 3.6l-.1 1.2v-1.2zm66.1 69.8l-1 2.4 1-2.4zm-8.8 12.7l2.3 1.7-2.3-1.7zm81 6.3l-.8 3.7.8-3.7zm38.2 20h-.3.3zm-3 .5l-1.2.2 1.2-.2zm-3.4.5zm-3.6.5zm-3.8.4l-1.7.1 1.7-.1zm-3.6.3l-2 .1 2-.1zm-3.8.2l-2.2.1h2.2zm75.5 0l1.8.6.3-.1-2.1-.4zm-79.3.2zm78.5 2l-1.8 1.1 1.8-1zm-3 1.9zm-3 1.7zm-4.7 2.5zm-3.3 1.7l-1.8.8 1.8-.8zm-4.6 2.2l-2 .8 2-.8zm-3.4 1.5zm-4 1.6zm-4.3 1.7zm-3.6 1.3l-1.6.6 1.6-.6zm-4.8 1.6l-1.5.4 1.5-.4zm-3.7 1.1l-1.5.4 1.5-.4zm-4.5 1.2l-1.2.3 1.2-.3zm-4 1zm-4 1l-1.4.2c.5 0 1-.2 1.4-.3zm-5 1h-1 1zm-3.9.6l-1.3.2 1.3-.2zm-9 1.1zm-4.2.4l-1 .1h1zm-5 .4h-.8.9zm-4 .1z"/>
  <path fill="#989898" fill-rule="evenodd" d="M276.3 154a175 175 0 0 0 267.5 168.8l-1.8-.6c-10.5-2.1-20.6-5.2-30.5-9a155.8 155.8 0 0 1-128.2-10.4c19.5 1.4 30.5-6.9 65.4.6 1.7-8 3.4-15.4 5.1-22.6a461 461 0 0 1-22.2-17c-11.5-10-21-18.7-29.9-27a405 405 0 0 0-30.9 58.3c-3.1-2.2-6.2-4.5-9.2-7a385 385 0 0 1 32.8-58 603 603 0 0 0-39.9-34.4c-10.4-8.1-22-15.6-34.2-22.2-5.7 13.5-8.9 27.6-9.4 42-5.4-15.9-8.1-32.6-8.2-49.4v-1.4c-8.6-4-17.5-7.5-26.4-10.7z"/>
  <g style="line-height:125%" fill="#989898" font-family="sans-serif" font-size="113.1" font-weight="400" letter-spacing="0" word-spacing="0">
    <path fill="#d32339" d="M64.4 472.3l-1.8.4-2 .4h-2.3q-8 0-13.2-3.5-5-3.7-8.7-11.2l-2.3-4.8-3.3-7-3.8-8.4-3.8-8.7-9.7-21.7.4 54.4.1 5.6.3 3.3q0 1.4.2 2-7 0-10.8-2.7-3.7-3-3.7-9.8v-65.1l1.8-.5 2-.3 2.3-.1q9 0 14.4 4 5.4 3.8 9.6 12 .6 1 1.7 3.6l2.7 6 3.4 7.4 3.6 8 9 20.7-.3-49.2q0-6.7 3.8-9.6 3.7-3 10.7-3l-.2 2.2-.2 3.4v72.2zM111.8 474.3q-7.5 0-14.5-2.6T85 464q-5.3-5-8.6-12.7-3.3-7.5-3.3-17.5t3.3-17.5q3.3-7.6 8.6-12.7 5.4-5 12.4-7.6 7-2.6 14.5-2.6 4.8 0 8.4 1.2 3.6 1 6.2 2.4 2.7 1.5 4.3 3.1 1.6 1.5 2.1 2.4l-.7 1.2q-.4.6-1 1.1-.4.5-1 .7-1.2.8-2.8.8-1.6 0-3-.4l-3-1.2-3.8-1q-2.3-.5-5.7-.5-4.4 0-8.7 1.8-4.2 1.8-7.6 5.5-3.4 3.7-5.4 9.6-2 5.8-2 13.7 0 8 2 13.8 2 5.8 5.4 9.6 3.4 3.8 7.6 5.6 4.3 1.8 8.7 1.8 3.4 0 5.7-.5 2.2-.5 3.8-1.1l3-1q1.4-.6 3-.6t2.8.8q1.3 1 2 1.8l.7 1.3q-.5 1-2.1 2.6-1.6 1.4-4.3 3-2.6 1.3-6.2 2.3-3.6 1.1-8.4 1.1zM139 404.8l-.1-5.4-.1-3.4-.2-2q13.8 0 13.8 13.2l.2 28.8q0 7.3.5 12.3.7 5 2.7 8t5.6 4.4q3.7 1.3 9.9 1.3h5l4-.2 3.4-.4v.7q0 1.8-1 3.8-.7 2-2.5 3.6-1.7 1.5-4.4 2.7-2.6 1-6.4 1-9 0-14.9-1.8-5.9-2-9.4-6.4-3.4-4.4-4.7-11.6-1.4-7.4-1.4-18.1v-30.5zM213.6 474.3q-5.8 0-10.4-1.3-4.5-1.4-7.8-3.2-3.3-2-5.3-3.9t-2.4-3l.3-.3q1-1.5 2.3-2.4 1.1-.7 2.4-.7.8 0 1.4.2l1.7.6q1 .2 1.8.7 1 .3 2 .9 2.3.9 5.4 1.7 3 .6 7.3.9h1.3q4.2 0 7.1-1 3-1 4.8-2.4 1.8-1.6 2.6-3.4.8-2 .8-3.6 0-3-1.8-5.4-1.9-2.4-5.1-4.7-3.3-2.3-7.7-4.6l-9.4-5.1q-8.2-4.7-12.1-10.3-4-5.8-3.4-12.1.4-4.8 2.6-8.3 2.1-3.5 5.3-5.8 3.3-2.3 7.2-3.4 4.1-1 8.2-1 6.9 0 12 1.7 5.3 1.8 9 4 4.1 2.5 7 5.6l-.2.4q-1.3 1.7-2.2 2.2-1.2.8-2.5.8t-3-.8l-2-.6-2-1q-3.3-1.2-7-1.9-3.7-.8-6.5-.6l-3.2.2q-1.7.2-3.3.8-1.4.5-2.7 1.6-1.1 1-1.6 2.6-1 3.3 1.4 6 2.5 2.6 6.6 5 4.1 2.5 9.1 5 5.1 2.4 9.5 5.5 6.1 4.3 9 8.8 3.1 4.4 3.8 8.7.7 4.3-.4 8.2-1.2 4-3.2 7-3.6 5.7-10.9 8.8-7.1 3-15.8 3z"/>
    <path d="M304.4 393.4q7.5 0 14.4 2.6 7 2.5 12.5 7.6 5.4 5 8.6 12.7 3.2 7.6 3.2 17.5 0 10-3.2 17.5-3.3 7.6-8.8 12.7-5.4 5.1-12.4 7.7-7 2.6-14.5 2.6l-4.8-.1q-3 0-5.4-.2-1.8-.2-3.4-.7-1.5-.3-3-1-4.5-1.7-6.8-5.8-1.2-2.3-2-5.2-.5-3-.5-6.9l.2-41q0-7.6 2.4-12 2.3-4.2 7-6 2.6-1.2 6.4-1.5 2.3-.4 5.2-.4h5zm0 71.2q4.5 0 8.6-1.5 4.3-1.6 7.6-5 3.4-3.7 5.5-9.6 2.1-5.9 2.1-14.7 0-8.8-2.1-14.7-2-5.9-5.5-9.4-3.3-3.6-7.6-5-4.1-1.5-8.6-1.5h-3.8q-2 0-3.8.5-1.9.5-3.1 1.6-1.2 1.1-1.2 3.4V459q0 2.3 1.2 3.4 1.2 1.2 3 1.7 1.9.5 3.9.5h3.8zM392.7 462.2q1.3.8 2.6 2.7l.3.4-.3.3q-3.8 4-9 6.5-5 2.2-11 2.2-5.3 0-10-2-4.4-2.2-8-5.9-3.3-3.6-5.4-8.5-1.9-5-1.9-10.6 0-5.7 1.7-10.5 1.8-5 5-8.8 3.4-3.6 8-5.7 4.8-2.2 10.5-2.2 3.2 0 7 1t7 3.1q3.3 2 5.5 5.4 2.1 3.4 2.1 8.2 0 4.6-2.3 7.6-2.4 2.8-5.7 4.5-3.3 1.6-7 2.2-3.6.6-6.3.6-4.2 0-7.4-.4l-4.2-.8q.5 4 1.8 6.6 1.4 2.5 3 4 1.8 1.5 3.5 2t3 .5q2.4 0 4.6-.5 2.1-.4 3.8-1l3.2-1.1q1.6-.6 3-.6 1.6 0 2.9.8zm-17.5-32.5l-3 .7q-1.6.5-3.3 1.8-1.6 1.4-3 3.9-1.3 2.5-1.9 6.3 1.8.6 5.1 1.1 3.4.5 6.7.2 3.4-.4 5.9-2 2.6-1.6 2.8-5.3.2-2.8-2.2-4.9-2.4-2-7-1.8zM436.7 468.7q-2 3.7-4.8 5-2.7 1.4-5 1.6-3 .3-5.7-.9l-2.5-5.6-3.4-8.3-4-9.5-4-9.5-3.3-8.4-2.3-5.7-1-2-.7-2-.8-2q3.4-.8 6.5-.6 2.6.2 5.2 1.6 2.7 1.2 4.3 4.8l1.2 3.4q1 2 1.8 4.6l2 5.2 2.2 5.4 5.2 13.5q2.7-7.3 5.2-13.5l2.2-5.4 2-5.2 1.8-4.6 1.4-3.4q1.4-3.6 4.1-4.8 2.8-1.4 5.4-1.6 3-.2 6.4.6l-.9 1.9-.8 2-.8 2-2.1 5.7-3 7.5q-1.4 4-3.2 8.2L442 457l-3 7-2.3 4.8zM499.6 462.2q1.4.8 2.6 2.7l.4.4-.4.3q-3.7 4-9 6.5-5 2.2-11 2.2-5.2 0-9.9-2-4.5-2.2-8-5.9-3.4-3.6-5.4-8.5-2-5-2-10.6 0-5.7 1.8-10.5 1.8-5 5-8.8 3.3-3.6 8-5.7 4.7-2.2 10.5-2.2 3.2 0 6.9 1 3.8 1 7.1 3.1 3.3 2 5.5 5.4 2.1 3.4 2.1 8.2 0 4.6-2.4 7.6-2.4 2.8-5.6 4.5-3.3 1.6-7 2.2-3.7.6-6.4.6-4.2 0-7.3-.4l-4.2-.8q.4 4 1.8 6.6 1.3 2.5 3 4t3.4 2q1.7.5 3 .5 2.5 0 4.6-.5 2.2-.4 3.9-1l3.1-1.1q1.6-.6 3-.6 1.7 0 3 .8zm-17.4-32.5q-1.3.2-3 .7-1.6.5-3.3 1.8-1.6 1.4-3 3.9-1.3 2.5-2 6.3 1.9.6 5.2 1.1 3.4.5 6.7.2 3.3-.4 5.8-2 2.6-1.6 2.9-5.3.2-2.8-2.3-4.9-2.4-2-7-1.8zM535.4 463q.2 3-.4 5.3-.6 2-2.3 4-1.7 1.8-5.3 2-3.5.4-6.1-.8-2.6-1-4.4-3-1.7-1.8-2.6-4.4-.8-2.6-.8-5.5v-55l-.3-5.5v-3.4l-.3-2.1q7 0 10.7 2.9 3.8 3 3.8 9.6v52.2q0 2.7 1 4 1 1 2.4 1.3 1.3.2 2.7-.2 1.3-.6 2-1.4zM586 428.2q3.5 3.6 5.5 8.6 2 4.8 2 10.5 0 5.6-1.8 10.6-1.8 4.9-5.1 8.5-3.3 3.7-8 5.9-4.7 2.1-10.4 2.1-5.3 0-9.9-2.1-4.5-2.2-8-5.9-3.4-3.6-5.5-8.5-1.9-5-1.9-10.6 0-5.7 1.7-10.5 1.8-5 5.1-8.6 3.3-3.8 8-6 4.7-2 10.5-2 5.3 0 9.8 2 4.6 2.2 8 6zm-17.8 36.5q1.4 0 3.3-.7 2-.7 3.9-2.6 1.8-1.9 3-5.3 1.3-3.4 1.3-8.8 0-5.5-1.3-8.8-1.2-3.6-3-5.4-1.8-1.9-3.9-2.6-1.9-.6-3.3-.6-1.5 0-3.6.6-1.9.7-3.7 2.6-1.8 1.8-3 5.4-1.3 3.3-1.3 8.8 0 5.4 1.3 8.8 1.2 3.4 3 5.3 1.8 2 3.7 2.6 2 .7 3.6.7zM601.8 447.3q0-5.7 2-10.5 2-5 5.4-8.6 3.4-3.8 7.9-6 4.6-2 10-2 5.7 0 10.4 2 4.7 2.2 8 6 3.3 3.6 5 8.6 1.9 4.8 1.9 10.5 0 5.6-2 10.6-2 4.9-5.5 8.5-3.4 3.7-8 5.9-4.5 2.1-9.8 2.1-6.5 0-11.5-2.6l.1 17.2v5.6l.3 3.4q0 1.3.2 2-7 0-10.8-3-3.6-2.9-3.6-9.7v-40zm25.3 17.4q1.4 0 3.3-.7 2-.7 3.9-2.5 1.8-1.9 3-5.3 1.3-3.5 1.3-9 0-5.4-1.2-8.7-1.3-3.4-3.1-5.3t-3.9-2.6q-1.9-.6-3.3-.6-1.5 0-3.6.6-1.9.7-3.7 2.6-1.8 1.9-3 5.3-1.3 3.3-1.3 8.8 0 5.4 1.3 9 1.2 3.3 3 5.2 1.8 1.8 3.7 2.5 2 .7 3.6.7zM731.5 444.7q0-4.8-1-7.6-.9-3-2.5-4.5-1.6-1.7-3.5-2.3-1.9-.6-3.8-.6-2 0-3.9.6-1.8.6-3.4 2.3-1.4 1.6-2.5 4.5-.9 2.8-.9 7.6v17.5q0 3.4.2 5.6 0 2.1.2 3.3l.2 2q-7 0-10.7-2.9-3.8-2.9-3.8-9.6l.1-16q0-4.7-1-7.5-.9-3-2.5-4.5-1.6-1.7-3.5-2.3-1.9-.6-3.8-.6-2 0-3.9.6-1.8.6-3.4 2.3-1.4 1.6-2.3 4.5-1 2.8-1 7.6v23.1l.3 3.3.2 2q-7 0-10.7-2.9-3.8-2.9-3.8-9.6l.1-16q0-7.5 2.2-12.3 2.3-4.8 5.8-7.5 3.5-2.8 7.8-3.7 4.4-1 8.7-1 4.7 0 9.4 1.2 4.6 1 8.2 4.3 3.6-3.2 8.3-4.3 4.6-1.2 9.4-1.2 4.3 0 8.7 1 4.4 1 8 3.7 3.5 2.7 5.7 7.5t2.2 12.4v23.1l.3 3.3q0 1.4.2 2-7 0-10.8-2.9-3.6-2.9-3.6-9.6l.1-16zM797 462.2q1.4.8 2.7 2.7l.3.4-.3.3q-3.8 4-9 6.5-5 2.2-11 2.2-5.3 0-10-2-4.4-2.2-8-5.9-3.3-3.6-5.4-8.5-1.9-5-1.9-10.6 0-5.7 1.7-10.5 1.8-5 5-8.8 3.4-3.6 8-5.7 4.8-2.2 10.5-2.2 3.2 0 7 1t7 3.1q3.3 2 5.5 5.4 2.1 3.4 2.1 8.2 0 4.6-2.3 7.6-2.4 2.8-5.7 4.5-3.3 1.6-7 2.2-3.6.6-6.3.6-4.2 0-7.4-.4l-4.2-.8q.5 4 1.8 6.6 1.4 2.5 3 4 1.8 1.5 3.5 2t3 .5q2.4 0 4.6-.5 2.1-.4 3.8-1l3.2-1.1q1.6-.6 3-.6 1.6 0 2.9.8zm-17.4-32.5l-3 .7q-1.6.5-3.3 1.8-1.6 1.4-3 3.9-1.3 2.5-1.9 6.3 1.8.6 5.1 1.1 3.4.5 6.7.2 3.4-.4 5.9-2 2.6-1.6 2.8-5.3.2-2.8-2.3-4.9-2.3-2-7-1.8zM809.9 444.7q0-7.6 2.1-12.4 2.3-4.8 5.7-7.5 3.5-2.8 7.8-3.7 4.4-1 8.8-1 4.3 0 8.7 1 4.4 1 8 3.7 3.6 2.7 5.7 7.5 2.3 4.8 2.3 12.4l.4 28.5q-6.9 0-10.6-3-3.7-2.9-3.7-9.6v-16q0-4.7-1-7.5-.8-3-2.4-4.5-1.6-1.7-3.5-2.3-2-.6-3.9-.6-2 0-3.8.6-1.8.6-3.4 2.3-1.5 1.6-2.5 4.5-1 2.8-1 7.6v17.5l.2 5.6.2 3.3.2 2q-7 0-10.7-2.9-3.7-2.9-3.7-9.6v-16zM899.7 463.2v.8q.3 1 .3 1.7 0 2-1 3.8-.8 1.5-2.4 2.7-3.2 2.2-7.7 2.2-3.7 0-7.3-1.7-3.7-1.7-6.6-5-3-3.5-4.8-8.4-1.7-5.1-1.7-12l.2-32.6q0-6.8 3.6-9.7 3.6-3 10.5-3l-.2 2.2-.2 3.4V420h15.2q0 5.1-2.8 8.2-2.8 3-8 3h-4.3l-.1 16q0 4.8.7 8.1 1 3.2 2.4 5.2 3 3.9 8 3.9 2 0 4-.6l2.2-.7z" style="line-height:125%;-inkscape-font-specification:'Fontastique, Normal';text-align:start" font-family="Fontastique"/>
  </g>
</svg>
