<?xml version="1.0" encoding="UTF-8" standalone="no"?>
<!-- Created with Inkscape (http://www.inkscape.org/) -->

<svg
   xmlns:dc="http://purl.org/dc/elements/1.1/"
   xmlns:cc="http://creativecommons.org/ns#"
   xmlns:rdf="http://www.w3.org/1999/02/22-rdf-syntax-ns#"
   xmlns:svg="http://www.w3.org/2000/svg"
   xmlns="http://www.w3.org/2000/svg"
   xmlns:sodipodi="http://sodipodi.sourceforge.net/DTD/sodipodi-0.dtd"
   xmlns:inkscape="http://www.inkscape.org/namespaces/inkscape"
   width="900"
   height="500"
   id="svg2"
   version="1.1"
   inkscape:version="0.91 r13725"
   sodipodi:docname="logo_main.svg"
   inkscape:export-filename="C:\Users\eric\Documents\NCLS Development\logo\v2.2\logo_main_black.png"
   inkscape:export-xdpi="90.099998"
   inkscape:export-ydpi="90.099998">
  <defs
     id="defs4" />
  <sodipodi:namedview
     id="base"
     pagecolor="#ffffff"
     bordercolor="#666666"
     borderopacity="1.0"
     inkscape:pageopacity="0.0"
     inkscape:pageshadow="2"
     inkscape:zoom="0.34519345"
     inkscape:cx="884.24312"
     inkscape:cy="1009.1407"
     inkscape:document-units="px"
     inkscape:current-layer="text4206"
     showgrid="false"
     inkscape:window-width="1920"
     inkscape:window-height="1057"
     inkscape:window-x="-8"
     inkscape:window-y="-8"
     inkscape:window-maximized="1"
     fit-margin-top="0"
     fit-margin-left="0"
     fit-margin-right="0"
     fit-margin-bottom="0" />
  <metadata
     id="metadata7">
    <rdf:RDF>
      <cc:Work
         rdf:about="">
        <dc:format>image/svg+xml</dc:format>
        <dc:type
           rdf:resource="http://purl.org/dc/dcmitype/StillImage" />
        <dc:title></dc:title>
      </cc:Work>
    </rdf:RDF>
  </metadata>
  <g
     inkscape:label="Layer 1"
     inkscape:groupmode="layer"
     id="layer1"
     transform="translate(-1190.829,-843.92623)">
    <path
       inkscape:export-xdpi="90.099998"
       inkscape:export-ydpi="90.099998"
       style="fill:#d32339;fill-opacity:1"
       clip-path="none"
       d="M 450 0 C 363.19462 0.00016166564 291.1699 63.207818 277.39453 146.10547 C 286.02793 149.16919 294.5853 152.69547 302.98828 156.62305 C 307.90764 74.805279 375.80526 9.9672398 458.85938 9.9667969 C 545.10977 9.9671869 615.03075 79.886298 615.03125 166.13672 C 615.03177 230.14552 576.51596 285.14644 521.40234 309.26367 C 531.31609 312.58845 541.57027 315.16597 552.23828 317.02734 C 596.30643 285.24987 624.99988 233.48052 625 175 C 624.9998 78.35022 546.6498 0.00018 450 0 z M 492.64062 26.140625 C 500.48273 45.583365 527.47097 44.496715 545.63867 70.953125 C 550.43307 64.347885 556.31807 60.469946 563.20117 59.085938 C 542.63047 31.886387 504.66003 35.469655 492.64062 26.140625 z M 508.41211 70.074219 C 418.08313 70.729471 350.05714 112.48858 323.29102 167.04883 C 340.3708 176.62637 356.48226 187.74989 370.88477 199.82812 C 380.07036 207.59133 389.29275 215.79648 398.54492 224.08008 C 440.27871 164.26385 497.40461 109.81513 543.64453 71.845703 C 533.12595 70.727223 522.84833 70.149942 512.83594 70.074219 C 511.35578 70.063024 509.88057 70.063566 508.41211 70.074219 z M 535.41016 85.40625 C 498.09594 117.07243 445.3681 169.84963 405.76562 230.53906 C 422.18788 245.25036 438.77155 259.97961 455.74023 273.00195 C 468.44342 222.23541 484.52186 183.52027 535.41016 85.40625 z M 275.62695 160.22656 C 275.5659 160.95679 275.50518 161.68717 275.45312 162.41992 C 275.50577 161.687 275.56532 160.95697 275.62695 160.22656 z M 275.24219 165.78125 C 275.22428 166.12622 275.21317 166.47287 275.19727 166.81836 C 275.2134 166.47307 275.22404 166.12601 275.24219 165.78125 z M 275.08594 169.7207 C 275.07225 170.18261 275.05893 170.64462 275.04883 171.10742 C 275.05912 170.64464 275.07201 170.18258 275.08594 169.7207 z M 317.99219 179.46094 C 317.71638 180.21853 317.4439 180.97688 317.18359 181.73828 C 317.44396 180.97747 317.71637 180.21796 317.99219 179.46094 z M 316.98242 182.34375 C 316.53616 183.67178 316.11361 185.00487 315.71484 186.34375 C 316.11416 185.00487 316.53567 183.6718 316.98242 182.34375 z M 315.33984 187.61719 C 315.15817 188.2528 314.9834 188.88947 314.8125 189.52734 C 314.98359 188.88979 315.158 188.25249 315.33984 187.61719 z M 314.43945 190.95703 C 314.28952 191.5459 314.13683 192.13394 313.99609 192.72461 C 314.1371 192.13384 314.28923 191.54599 314.43945 190.95703 z M 313.32422 195.71484 C 313.22149 196.20209 313.12966 196.69133 313.0332 197.17969 C 313.12984 196.6914 313.2213 196.20202 313.32422 195.71484 z M 312.66602 199.10742 C 312.57443 199.61609 312.48515 200.12499 312.40039 200.63477 C 312.48536 200.1248 312.57421 199.61627 312.66602 199.10742 z M 312.02539 203.04688 C 311.98065 203.35627 311.9309 203.66483 311.88867 203.97461 C 311.93097 203.66498 311.98057 203.35611 312.02539 203.04688 z M 311.48828 207.29297 C 311.44601 207.68898 311.4112 208.08586 311.37305 208.48242 C 311.41127 208.08595 311.44593 207.68889 311.48828 207.29297 z M 311.16797 210.85938 C 311.13808 211.25707 311.10776 211.65454 311.08203 212.05273 C 311.1078 211.6545 311.13802 211.25711 311.16797 210.85938 z M 377.32227 280.73242 C 376.94886 281.5153 376.57221 282.29786 376.20508 283.08203 C 376.57223 282.29795 376.94883 281.51521 377.32227 280.73242 z M 368.48438 293.44531 C 369.26445 294.01384 370.04932 294.57681 370.83984 295.13086 C 370.83984 295.13086 370.83984 295.12891 370.83984 295.12891 C 370.04934 294.57486 369.26436 294.01383 368.48438 293.44531 z M 449.51758 299.71484 C 449.24112 300.97478 448.96991 302.16033 448.69141 303.44531 C 448.69141 303.44531 448.69336 303.44531 448.69336 303.44531 C 448.97133 302.1628 449.24176 300.973 449.51758 299.71484 z M 487.70508 319.64062 C 487.59553 319.66109 487.48659 319.6829 487.37695 319.70312 C 487.48655 319.68286 487.59556 319.66112 487.70508 319.64062 z M 484.74023 320.16406 C 484.33349 320.23191 483.92734 320.30054 483.51953 320.36523 C 483.92724 320.30042 484.33358 320.23203 484.74023 320.16406 z M 481.30664 320.69727 C 480.79713 320.77062 480.28648 320.84174 479.77539 320.91016 C 480.28671 320.84155 480.7969 320.77081 481.30664 320.69727 z M 477.67383 321.17773 C 477.12967 321.24308 476.58492 321.3055 476.03906 321.36523 C 476.58488 321.30535 477.12972 321.24324 477.67383 321.17773 z M 473.94531 321.58203 C 473.36177 321.63797 472.7768 321.68683 472.19141 321.73633 C 472.77664 321.68671 473.36194 321.6381 473.94531 321.58203 z M 470.25781 321.89258 C 469.61627 321.93886 468.97179 321.97713 468.32812 322.01562 C 468.97183 321.977 469.61624 321.93899 470.25781 321.89258 z M 466.46875 322.12305 C 465.76158 322.15698 465.0514 322.18058 464.3418 322.20508 C 465.05153 322.1805 465.76146 322.15709 466.46875 322.12305 z M 541.96094 322.15234 C 542.57224 322.34595 543.20812 322.55997 543.8125 322.74805 C 543.8125 322.74805 543.81445 322.74805 543.81445 322.74805 C 543.90575 322.68995 543.99475 322.62857 544.08594 322.57031 C 543.37499 322.43852 542.66882 322.29313 541.96094 322.15234 z M 462.65039 322.26367 C 461.39025 322.2937 460.12672 322.31054 458.85938 322.31055 C 460.12676 322.31054 461.39026 322.29379 462.65039 322.26367 z M 541.23828 324.35547 C 540.64446 324.71901 540.04572 325.07501 539.44727 325.43164 C 540.0457 325.07504 540.64449 324.71898 541.23828 324.35547 z M 538.16602 326.18945 C 537.54156 326.55442 536.9145 326.91602 536.28516 327.27344 C 536.91465 326.91596 537.54142 326.55448 538.16602 326.18945 z M 535.21875 327.87109 C 534.0266 328.53716 532.8263 329.18935 531.61719 329.82812 C 532.82633 329.1894 534.02658 328.5371 535.21875 327.87109 z M 530.50781 330.41211 C 529.83953 330.75905 529.16743 331.10091 528.49414 331.43945 C 529.16763 331.10086 529.83933 330.75911 530.50781 330.41211 z M 527.22852 332.06641 C 526.62828 332.36215 526.02987 332.66017 525.42578 332.94922 C 526.02973 332.66029 526.62842 332.36203 527.22852 332.06641 z M 522.57031 334.2832 C 521.92848 334.57616 521.28268 334.86108 520.63672 335.14648 C 521.28248 334.86123 521.92868 334.57601 522.57031 334.2832 z M 519.18555 335.78125 C 518.57627 336.04384 517.96635 336.3047 517.35352 336.56055 C 517.96626 336.3048 518.57636 336.04375 519.18555 335.78125 z M 515.27344 337.41016 C 514.53454 337.70748 513.79268 337.99961 513.04883 338.28711 C 513.79285 337.99963 514.53437 337.70748 515.27344 337.41016 z M 510.92969 339.0918 C 510.35186 339.3065 509.7721 339.51585 509.19141 339.72461 C 509.77198 339.51595 510.35197 339.3064 510.92969 339.0918 z M 507.27734 340.40039 C 506.74031 340.5864 506.20345 340.77417 505.66406 340.95508 C 506.20374 340.77413 506.74003 340.58644 507.27734 340.40039 z M 502.47852 341.99023 C 501.98019 342.14674 501.47875 342.29511 500.97852 342.44727 C 501.47874 342.29516 501.9802 342.14668 502.47852 341.99023 z M 498.76172 343.10742 C 498.27131 343.24948 497.78124 343.39143 497.28906 343.5293 C 497.78116 343.3915 498.27138 343.24941 498.76172 343.10742 z M 494.27148 344.3457 C 493.89265 344.44451 493.51264 344.5404 493.13281 344.63672 C 493.51273 344.54041 493.89256 344.44449 494.27148 344.3457 z M 490.21289 345.34961 C 489.67811 345.47542 489.14213 345.59786 488.60547 345.71875 C 489.14221 345.59789 489.67803 345.47539 490.21289 345.34961 z M 486.29492 346.22266 C 485.823 346.32224 485.35222 346.42376 484.87891 346.51953 C 485.35226 346.42379 485.82296 346.32221 486.29492 346.22266 z M 481.25 347.21289 C 480.91808 347.27275 480.58452 347.32873 480.25195 347.38672 C 480.5845 347.32876 480.9181 347.27272 481.25 347.21289 z M 477.44336 347.85352 C 476.98543 347.92568 476.52746 347.9978 476.06836 348.06641 C 476.52746 347.99783 476.98543 347.92565 477.44336 347.85352 z M 468.38867 349.03906 C 467.99974 349.0797 467.61039 349.11817 467.2207 349.15625 C 467.61029 349.11819 467.99984 349.07967 468.38867 349.03906 z M 464.18359 349.42578 C 463.85277 349.45233 463.52274 349.48311 463.19141 349.50781 C 463.52286 349.48311 463.85266 349.45233 464.18359 349.42578 z M 459.25 349.75586 C 458.95699 349.77113 458.66253 349.7811 458.36914 349.79492 C 458.66263 349.7811 458.95689 349.77113 459.25 349.75586 z M 455.23828 349.91602 C 454.82053 349.92831 454.40285 349.93986 453.98438 349.94922 C 454.40285 349.93987 454.82053 349.9283 455.23828 349.91602 z "
       transform="translate(1190.829,843.92623)"
       id="path4210" />
    <path
       style="fill:#989898;fill-opacity:1;fill-rule:evenodd;stroke:none;stroke-width:1px;stroke-linecap:butt;stroke-linejoin:miter;stroke-opacity:1"
       d="M 276.26562 153.97266 C 275.43714 160.86695 275 167.88226 275 175 C 275.0002 271.6498 353.3502 349.9999 450 350 C 484.5191 349.9999 516.69975 340.00095 543.81445 322.74805 C 543.21193 322.56055 542.57815 322.34727 541.96875 322.1543 C 531.49933 320.07261 521.36224 317.0157 511.53906 313.18359 C 495.07965 319.08242 477.34769 322.31045 458.85938 322.31055 C 432.42338 322.29655 406.42438 315.57063 383.29688 302.76562 C 402.75357 304.16552 413.79271 295.94411 448.69141 303.44531 C 450.42112 295.46461 452.10995 288.03403 453.82617 280.8418 C 446.23333 275.39156 438.83724 269.68598 431.64648 263.83203 C 420.14698 253.87943 410.5919 245.11028 401.69727 236.89453 C 389.80338 255.73136 379.22589 275.26508 370.83984 295.13086 C 367.67774 292.91466 364.59848 290.58112 361.60938 288.13672 C 370.36304 268.5409 381.58134 249.10114 394.39062 230.15039 C 381.69564 218.43892 369.70636 207.58139 354.51172 195.73828 C 344.10888 187.5579 332.56534 180.13103 320.33594 173.50195 C 314.63895 186.95158 311.39698 201.0845 310.9043 215.50586 C 305.5301 199.59816 302.75565 182.92947 302.68945 166.13867 C 302.68945 165.65839 302.70597 165.1822 302.71094 164.70312 C 294.0716 160.74071 285.21189 157.1595 276.26562 153.97266 z "
       transform="translate(1190.829,843.92623)"
       id="path4186" />
    <g
       style="font-style:normal;font-weight:normal;font-size:113.14150238px;line-height:125%;font-family:sans-serif;letter-spacing:0px;word-spacing:0px;fill:#989898;fill-opacity:1;stroke:none;stroke-width:1px;stroke-linecap:butt;stroke-linejoin:miter;stroke-opacity:1"
       id="text4206"
       inkscape:export-xdpi="90.099998"
       inkscape:export-ydpi="90.099998">
      <path
         d="m 1255.2066,1316.2066 q -0.792,0.2262 -1.8103,0.4525 -0.9051,0.2263 -2.0366,0.3395 -1.0182,0.1131 -2.2628,0.1131 -8.033,0 -13.1244,-3.6205 -4.9782,-3.6206 -8.7119,-11.201 -0.9051,-1.6972 -2.376,-4.752 -1.4708,-3.1679 -3.2811,-7.0148 -1.6971,-3.9599 -3.7336,-8.3724 -1.9234,-4.4125 -3.8469,-8.7119 -4.5256,-10.0696 -9.7301,-21.7232 l 0.4525,54.4211 q 0.1132,3.3942 0.1132,5.5439 0.1131,2.1497 0.2263,3.3942 0.1131,1.3577 0.2263,2.0366 -7.0148,0 -10.7485,-2.8285 -3.7337,-2.9417 -3.7337,-9.7302 l 0,-65.1695 q 0.792,-0.2263 1.8103,-0.4526 0.9051,-0.2263 1.9234,-0.3394 1.1314,-0.1131 2.376,-0.1131 8.9382,0 14.369,3.9599 5.4307,3.8468 9.617,11.993 0.5657,1.1314 1.6971,3.7337 1.2446,2.4891 2.7154,5.9965 1.584,3.3942 3.3942,7.3542 1.8103,3.9599 3.6206,8.033 4.1862,9.5039 9.0513,20.7049 l -0.3394,-49.2165 q 0,-6.6754 3.7336,-9.6171 3.7337,-2.9416 10.7485,-2.9416 -0.1132,0.7919 -0.2263,2.1496 -0.1131,1.2446 -0.2263,3.3943 0,2.0365 0,5.4308 l 0.1132,66.7535 z"
         style="fill:#d32339;fill-opacity:1"
         id="path4221" />
      <path
         d="m 1302.6305,1318.2431 q -7.4673,0 -14.4821,-2.6022 -7.0148,-2.6023 -12.4456,-7.6937 -5.3176,-5.0913 -8.5987,-12.6718 -3.2811,-7.5805 -3.2811,-17.5369 0,-9.9565 3.2811,-17.537 3.2811,-7.5805 8.5987,-12.6718 5.4308,-5.0914 12.4456,-7.5805 7.0148,-2.6023 14.4821,-2.6023 4.752,0 8.3725,1.1315 3.6205,1.0182 6.2228,2.4891 2.7154,1.4708 4.2994,3.0548 1.5839,1.4708 2.1496,2.376 -0.3394,0.6788 -0.7919,1.2445 -0.3395,0.5657 -0.9052,1.1314 -0.4525,0.4526 -1.0183,0.6789 -1.2445,0.792 -2.8285,0.792 -1.584,0 -2.9417,-0.4526 -1.3577,-0.5657 -3.0548,-1.1314 -1.584,-0.5657 -3.8468,-1.0183 -2.2628,-0.5657 -5.6571,-0.5657 -4.4125,0 -8.7119,1.8103 -4.1862,1.8102 -7.5805,5.5439 -3.3942,3.7337 -5.4307,9.617 -2.0366,5.7702 -2.0366,13.6902 0,8.033 2.0366,13.8032 2.0365,5.7702 5.4307,9.617 3.3943,3.7337 7.5805,5.544 4.2994,1.8102 8.7119,1.8102 3.3943,0 5.6571,-0.4525 2.2628,-0.5657 3.8468,-1.1314 1.6971,-0.5657 3.0548,-1.0183 1.3577,-0.5657 2.9417,-0.5657 1.584,0 2.8285,0.792 1.2446,0.9051 1.9235,1.8102 0.4525,0.5657 0.7919,1.2446 -0.5657,1.0183 -2.1496,2.6022 -1.584,1.4709 -4.2994,2.9417 -2.6023,1.3577 -6.2228,2.376 -3.6205,1.1314 -8.3725,1.1314 z"
         style="fill:#d32339;fill-opacity:1"
         id="path4223" />
      <path
         d="m 1329.8357,1248.7742 q -0.1131,-3.3942 -0.1131,-5.4308 0,-2.1497 -0.1131,-3.3942 -0.1132,-1.3577 -0.2263,-2.0366 13.8032,0 13.8032,13.2376 l 0.2263,28.7379 q 0,7.3542 0.5657,12.3325 0.6789,4.9782 2.6023,8.033 2.0365,3.0548 5.6571,4.4125 3.7336,1.2446 9.8433,1.2446 2.8285,0 5.0913,0 2.376,-0.1132 3.96,-0.2263 1.9234,-0.1131 3.3942,-0.3394 l 0,0.6788 q 0,1.8103 -0.9051,3.8468 -0.792,1.9234 -2.6023,3.5074 -1.6971,1.584 -4.4125,2.7154 -2.6022,1.0183 -6.3359,1.0183 -9.0513,0 -14.9347,-1.8103 -5.8833,-1.9234 -9.3907,-6.3359 -3.3943,-4.4125 -4.752,-11.6536 -1.3577,-7.3542 -1.3577,-18.1026 l 0,-30.4351 z"
         style="fill:#d32339;fill-opacity:1"
         id="path4225" />
      <path
         d="m 1404.4207,1318.2431 q -5.7702,0 -10.409,-1.3577 -4.5256,-1.3577 -7.8067,-3.168 -3.2811,-1.9234 -5.3177,-3.8468 -1.9234,-1.9234 -2.376,-3.0548 l 0.3395,-0.3394 q 1.0182,-1.4708 2.2628,-2.376 1.1314,-0.6788 2.376,-0.6788 0.792,0 1.4708,0.2263 0.792,0.2262 1.6971,0.5657 0.9052,0.2262 1.8103,0.6788 0.9051,0.3394 2.0365,0.9051 2.2629,0.9052 5.3177,1.6972 3.0548,0.6788 7.3542,0.9051 l 1.2445,0 q 4.1863,0 7.128,-0.9051 2.9416,-1.0183 4.7519,-2.4891 1.8103,-1.584 2.6023,-3.3943 0.7919,-1.9234 0.7919,-3.6205 0.1132,-2.9417 -1.8102,-5.3177 -1.8103,-2.4891 -5.0914,-4.7519 -3.2811,-2.2628 -7.6936,-4.6388 -4.4125,-2.376 -9.3908,-5.0914 -8.1461,-4.6388 -12.1061,-10.2959 -3.9599,-5.7702 -3.3942,-12.1061 0.4525,-4.7519 2.6022,-8.2593 2.1497,-3.5074 5.3177,-5.7702 3.2811,-2.376 7.241,-3.3943 4.0731,-1.1314 8.1462,-1.1314 6.9016,0 12.1062,1.8103 5.2045,1.8102 8.825,3.9599 4.1862,2.4891 7.1279,5.6571 l -0.2263,0.3394 q -1.3577,1.6971 -2.2628,2.2628 -1.1314,0.792 -2.4891,0.792 -1.2446,0 -3.0548,-0.792 -0.9052,-0.3394 -1.9234,-0.6788 -0.9052,-0.4526 -2.0366,-0.9051 -3.2811,-1.2446 -7.0148,-1.9234 -3.6205,-0.792 -6.449,-0.6789 -1.4709,0 -3.168,0.2263 -1.6971,0.2263 -3.2811,0.792 -1.4708,0.5657 -2.7154,1.584 -1.1314,1.0182 -1.584,2.6022 -1.0182,3.3943 1.3577,5.9965 2.4891,2.6023 6.5622,5.0914 4.1863,2.4891 9.1645,4.9782 5.0914,2.376 9.5039,5.4308 6.1096,4.2994 9.0513,8.825 3.0548,4.4126 3.7337,8.7119 0.6788,4.2994 -0.4526,8.2594 -1.1314,3.9599 -3.168,7.0147 -3.6205,5.6571 -10.8615,8.7119 -7.128,2.9417 -15.8399,2.9417 z"
         style="fill:#d32339;fill-opacity:1"
         id="path4227" />
      <path
         d="m 1495.2751,1237.3469 q 7.4674,0 14.369,2.6023 7.0148,2.4891 12.4456,7.5805 5.4308,5.0913 8.5987,12.6718 3.2811,7.5805 3.2811,17.537 0,9.9564 -3.2811,17.5369 -3.2811,7.5805 -8.7119,12.6718 -5.4308,5.0914 -12.4455,7.6937 -7.0148,2.6022 -14.4821,2.6022 -1.9234,0 -4.8651,-0.1131 -2.9417,0 -5.3177,-0.2263 -1.8102,-0.2263 -3.3942,-0.6789 -1.584,-0.3394 -3.0548,-0.9051 -4.5257,-1.8103 -6.7885,-5.8834 -1.2446,-2.2628 -1.9234,-5.2045 -0.5657,-2.9416 -0.5657,-6.9016 l 0.2262,-40.9572 q 0,-7.6936 2.376,-12.1062 2.2628,-4.1862 6.9016,-5.9965 2.7154,-1.1314 6.4491,-1.4708 2.376,-0.3394 5.2045,-0.3394 2.9417,-0.1132 4.9782,-0.1132 z m 0,71.166 q 4.4126,0 8.5988,-1.4708 4.2994,-1.584 7.5805,-5.0914 3.3942,-3.6205 5.4308,-9.5039 2.1497,-5.8833 2.1497,-14.7083 0,-8.8251 -2.1497,-14.7084 -2.0366,-5.8834 -5.4308,-9.3908 -3.2811,-3.6205 -7.5805,-5.0914 -4.1862,-1.4708 -8.5988,-1.4708 -1.6971,0 -3.8468,0 -2.0365,0 -3.8468,0.5657 -1.8102,0.4526 -3.0548,1.584 -1.2446,1.1314 -1.2446,3.3942 l 0,50.348 q 0,2.2628 1.2446,3.3943 1.2446,1.1314 3.0548,1.6971 1.8103,0.4525 3.8468,0.4525 2.1497,0 3.8468,0 z"
         style="font-style:normal;font-variant:normal;font-weight:normal;font-stretch:normal;font-size:113.14150238px;line-height:125%;font-family:Fontastique;-inkscape-font-specification:'Fontastique, Normal';text-align:start;writing-mode:lr-tb;text-anchor:start;fill:#989898;fill-opacity:1"
         id="path4229" />
      <path
         d="m 1583.4884,1306.137 q 1.3577,0.792 2.6022,2.7154 l 0.3395,0.3394 -0.3395,0.3394 q -3.7336,4.0731 -8.9381,6.4491 -5.0914,2.2628 -11.0879,2.2628 -5.2045,0 -9.8433,-2.0365 -4.5257,-2.1497 -8.0331,-5.8834 -3.3942,-3.6205 -5.4308,-8.4856 -1.9234,-4.9782 -1.9234,-10.6353 0,-5.6571 1.6972,-10.5222 1.8102,-4.9782 5.0913,-8.7119 3.2811,-3.6205 7.9199,-5.7702 4.752,-2.1497 10.5222,-2.1497 3.168,0 6.9016,1.0183 3.8468,0.9051 7.1279,3.0548 3.2811,2.0366 5.4308,5.4308 2.1497,3.3943 2.1497,8.1462 0,4.6388 -2.376,7.5805 -2.3759,2.8285 -5.657,4.5256 -3.2811,1.584 -7.0148,2.2629 -3.6205,0.5657 -6.3359,0.5657 -4.1863,0 -7.3542,-0.4526 -3.0548,-0.5657 -4.1863,-0.792 0.4526,4.0731 1.8103,6.6754 1.3577,2.4891 3.0548,3.9599 1.6971,1.4709 3.3943,2.0366 1.6971,0.4525 3.0548,0.4525 2.376,0 4.5257,-0.4525 2.1496,-0.4526 3.8468,-1.0183 1.6971,-0.5657 3.1679,-1.1314 1.584,-0.5657 3.0548,-0.5657 1.584,0 2.8286,0.792 z m -17.4238,-32.4716 q -1.2446,0.1131 -2.9417,0.6788 -1.6971,0.4526 -3.3942,1.8103 -1.584,1.3577 -2.9417,3.8468 -1.3577,2.4891 -1.9234,6.3359 1.8102,0.5657 5.0914,1.1314 3.3942,0.4526 6.6753,0.1132 3.3942,-0.3395 5.8834,-1.9234 2.6022,-1.584 2.8285,-5.3177 0.2263,-2.8285 -2.2628,-4.8651 -2.376,-2.0365 -7.0148,-1.8102 z"
         style="font-style:normal;font-variant:normal;font-weight:normal;font-stretch:normal;font-size:113.14150238px;line-height:125%;font-family:Fontastique;-inkscape-font-specification:'Fontastique, Normal';text-align:start;writing-mode:lr-tb;text-anchor:start;fill:#989898;fill-opacity:1"
         id="path4231" />
      <path
         d="m 1627.4828,1312.586 q -2.0366,3.7337 -4.752,5.0914 -2.7154,1.3577 -5.0913,1.584 -2.8286,0.2263 -5.6571,-0.9051 -0.9051,-2.0366 -2.4891,-5.6571 -1.4709,-3.7337 -3.3943,-8.2594 -1.8102,-4.5256 -3.9599,-9.5038 -2.0366,-4.9783 -3.96,-9.5039 -1.8102,-4.6388 -3.3942,-8.3725 -1.4709,-3.7337 -2.2629,-5.7702 -0.4525,-1.0183 -0.9051,-2.0366 -0.4526,-1.0182 -0.792,-1.9234 -0.4525,-1.0182 -0.792,-2.0365 3.3943,-0.792 6.4491,-0.5657 2.6023,0.2263 5.2045,1.584 2.7154,1.2445 4.2994,4.865 0.4525,1.2446 1.2445,3.3943 0.9052,2.0365 1.8103,4.5256 1.0183,2.4892 2.0366,5.2046 1.1314,2.7154 2.1496,5.4308 2.376,6.2227 5.2045,13.4638 2.7154,-7.2411 5.2046,-13.4638 1.0182,-2.7154 2.1496,-5.4308 1.1315,-2.7154 2.0366,-5.2046 1.0183,-2.4891 1.8103,-4.5256 0.7919,-2.1497 1.3577,-3.3943 1.4708,-3.6205 4.1862,-4.865 2.7154,-1.3577 5.3176,-1.584 3.0549,-0.2263 6.4491,0.5657 -0.4526,0.9051 -0.9051,1.9234 -0.3394,0.9051 -0.792,2.0365 -0.4526,1.0183 -0.792,2.0366 -0.792,2.1497 -2.1497,5.6571 -1.3577,3.3942 -2.9417,7.4673 -1.4708,3.96 -3.2811,8.2593 -1.6971,4.1863 -3.2811,8.1462 -1.584,3.8468 -3.0548,7.0148 -1.3577,3.0548 -2.2628,4.7519 z"
         style="font-style:normal;font-variant:normal;font-weight:normal;font-stretch:normal;font-size:113.14150238px;line-height:125%;font-family:Fontastique;-inkscape-font-specification:'Fontastique, Normal';text-align:start;writing-mode:lr-tb;text-anchor:start;fill:#989898;fill-opacity:1"
         id="path4233" />
      <path
         d="m 1690.4425,1306.137 q 1.3577,0.792 2.6022,2.7154 l 0.3394,0.3394 -0.3394,0.3394 q -3.7337,4.0731 -8.9382,6.4491 -5.0913,2.2628 -11.0878,2.2628 -5.2045,0 -9.8433,-2.0365 -4.5257,-2.1497 -8.0331,-5.8834 -3.3942,-3.6205 -5.4308,-8.4856 -1.9234,-4.9782 -1.9234,-10.6353 0,-5.6571 1.6971,-10.5222 1.8103,-4.9782 5.0914,-8.7119 3.2811,-3.6205 7.9199,-5.7702 4.7519,-2.1497 10.5222,-2.1497 3.1679,0 6.9016,1.0183 3.8468,0.9051 7.1279,3.0548 3.2811,2.0366 5.4308,5.4308 2.1497,3.3943 2.1497,8.1462 0,4.6388 -2.376,7.5805 -2.376,2.8285 -5.6571,4.5256 -3.2811,1.584 -7.0147,2.2629 -3.6206,0.5657 -6.336,0.5657 -4.1862,0 -7.3542,-0.4526 -3.0548,-0.5657 -4.1862,-0.792 0.4526,4.0731 1.8103,6.6754 1.3577,2.4891 3.0548,3.9599 1.6971,1.4709 3.3942,2.0366 1.6972,0.4525 3.0549,0.4525 2.3759,0 4.5256,-0.4525 2.1497,-0.4526 3.8468,-1.0183 1.6972,-0.5657 3.168,-1.1314 1.584,-0.5657 3.0548,-0.5657 1.584,0 2.8286,0.792 z m -17.4238,-32.4716 q -1.2446,0.1131 -2.9417,0.6788 -1.6971,0.4526 -3.3943,1.8103 -1.5839,1.3577 -2.9416,3.8468 -1.3577,2.4891 -1.9234,6.3359 1.8102,0.5657 5.0913,1.1314 3.3943,0.4526 6.6754,0.1132 3.3942,-0.3395 5.8833,-1.9234 2.6023,-1.584 2.8286,-5.3177 0.2262,-2.8285 -2.2629,-4.8651 -2.3759,-2.0365 -7.0147,-1.8102 z"
         style="font-style:normal;font-variant:normal;font-weight:normal;font-stretch:normal;font-size:113.14150238px;line-height:125%;font-family:Fontastique;-inkscape-font-specification:'Fontastique, Normal';text-align:start;writing-mode:lr-tb;text-anchor:start;fill:#989898;fill-opacity:1"
         id="path4235" />
      <path
         d="m 1726.2376,1306.929 q 0.2263,2.9416 -0.4525,5.3176 -0.5657,2.0366 -2.2629,3.96 -1.6971,1.8102 -5.3176,2.0365 -3.5074,0.3394 -6.1097,-0.792 -2.6022,-1.0183 -4.4125,-2.9417 -1.6971,-1.9234 -2.6022,-4.5256 -0.792,-2.6023 -0.792,-5.4308 l 0,-55.0999 q -0.1132,-3.3943 -0.2263,-5.4308 0,-2.1497 -0.1131,-3.3943 -0.1132,-1.3577 -0.2263,-2.1496 7.0147,0 10.7484,2.9416 3.7337,2.9417 3.7337,9.6171 l 0,52.1582 q 0,2.7154 1.0183,3.9599 1.0182,1.1315 2.3759,1.3577 1.3577,0.2263 2.7154,-0.2262 1.3577,-0.5658 1.9234,-1.3577 z"
         style="font-style:normal;font-variant:normal;font-weight:normal;font-stretch:normal;font-size:113.14150238px;line-height:125%;font-family:Fontastique;-inkscape-font-specification:'Fontastique, Normal';text-align:start;writing-mode:lr-tb;text-anchor:start;fill:#989898;fill-opacity:1"
         id="path4237" />
      <path
         d="m 1776.856,1272.0814 q 3.5074,3.6205 5.4308,8.5987 2.0366,4.8651 2.0366,10.5222 0,5.6571 -1.8103,10.6353 -1.8102,4.8651 -5.0913,8.4856 -3.2811,3.7337 -8.0331,5.8834 -4.6388,2.1497 -10.409,2.1497 -5.2045,0 -9.8433,-2.1497 -4.5257,-2.1497 -8.0331,-5.8834 -3.3942,-3.6205 -5.4308,-8.4856 -1.9234,-4.9782 -1.9234,-10.6353 0,-5.6571 1.6972,-10.5222 1.8102,-4.9782 5.0913,-8.5987 3.2811,-3.7337 7.9199,-5.8834 4.752,-2.1497 10.5222,-2.1497 5.3176,0 9.8433,2.1497 4.6388,2.1497 8.033,5.8834 z m -17.8763,36.5447 q 1.4708,0 3.3942,-0.6789 2.0366,-0.6788 3.8468,-2.6022 1.8103,-1.9234 3.0549,-5.3177 1.2445,-3.3942 1.2445,-8.825 0,-5.4308 -1.2445,-8.825 -1.2446,-3.5074 -3.0549,-5.3177 -1.8102,-1.9234 -3.8468,-2.6023 -1.9234,-0.6788 -3.3942,-0.6788 -1.4708,0 -3.5074,0.6788 -1.9234,0.6789 -3.7337,2.6023 -1.8102,1.8103 -3.0548,5.3177 -1.2445,3.3942 -1.2445,8.825 0,5.4308 1.2445,8.825 1.2446,3.3943 3.0548,5.3177 1.8103,1.9234 3.7337,2.6022 2.0366,0.6789 3.5074,0.6789 z"
         style="font-style:normal;font-variant:normal;font-weight:normal;font-stretch:normal;font-size:113.14150238px;line-height:125%;font-family:Fontastique;-inkscape-font-specification:'Fontastique, Normal';text-align:start;writing-mode:lr-tb;text-anchor:start;fill:#989898;fill-opacity:1"
         id="path4239" />
      <path
         d="m 1792.6535,1291.2023 q 0,-5.6571 1.9234,-10.5222 2.0365,-4.9782 5.4308,-8.5987 3.3942,-3.7337 7.9199,-5.8834 4.6388,-2.1497 9.9564,-2.1497 5.7702,0 10.409,2.1497 4.752,2.1497 8.0331,5.8834 3.2811,3.6205 5.0914,8.5987 1.8102,4.8651 1.8102,10.5222 0,5.6571 -2.0365,10.6353 -1.9234,4.8651 -5.4308,8.4856 -3.3943,3.7337 -8.0331,5.8834 -4.5256,2.1497 -9.8433,2.1497 -6.449,0 -11.4273,-2.6023 l 0.1132,17.1975 q 0,3.3942 0,5.5439 0.1131,2.1497 0.2263,3.3943 0.1131,1.3577 0.2262,2.0365 -7.0147,0 -10.7484,-2.9416 -3.6205,-2.9417 -3.6205,-9.7302 l 0,-40.0521 z m 25.2305,17.4238 q 1.4709,0 3.3943,-0.6789 2.0365,-0.6788 3.8468,-2.4891 1.8102,-1.9234 3.0548,-5.3176 1.2446,-3.5074 1.2446,-8.9382 0,-5.4308 -1.2446,-8.825 -1.2446,-3.3943 -3.0548,-5.2046 -1.8103,-1.9234 -3.8468,-2.6022 -1.9234,-0.6789 -3.3943,-0.6789 -1.4708,0 -3.5074,0.6789 -1.9234,0.6788 -3.7336,2.6022 -1.8103,1.8103 -3.0549,5.2046 -1.2445,3.3942 -1.2445,8.825 0,5.4308 1.2445,8.9382 1.2446,3.3942 3.0549,5.3176 1.8102,1.8103 3.7336,2.4891 2.0366,0.6789 3.5074,0.6789 z"
         style="font-style:normal;font-variant:normal;font-weight:normal;font-stretch:normal;font-size:113.14150238px;line-height:125%;font-family:Fontastique;-inkscape-font-specification:'Fontastique, Normal';text-align:start;writing-mode:lr-tb;text-anchor:start;fill:#989898;fill-opacity:1"
         id="path4241" />
      <path
         d="m 1922.3684,1288.6 q 0,-4.7519 -1.0182,-7.5804 -0.9052,-2.9417 -2.4892,-4.5257 -1.5839,-1.6971 -3.5073,-2.2628 -1.9234,-0.5657 -3.8469,-0.5657 -1.9234,0 -3.8468,0.5657 -1.8102,0.5657 -3.3942,2.2628 -1.4708,1.584 -2.4891,4.5257 -0.9052,2.8285 -0.9052,7.5804 l 0,17.537 q 0,3.3942 0.1132,5.5439 0.1131,2.1497 0.2263,3.3942 0.1131,1.3577 0.2263,2.0366 -7.0148,0 -10.7485,-2.9417 -3.7337,-2.9417 -3.7337,-9.617 l 0.1132,-15.953 q 0,-4.7519 -1.0183,-7.5804 -0.9051,-2.9417 -2.4891,-4.5257 -1.584,-1.6971 -3.5074,-2.2628 -1.9234,-0.5657 -3.8468,-0.5657 -1.9234,0 -3.8468,0.5657 -1.8103,0.5657 -3.3943,2.2628 -1.4708,1.584 -2.3759,4.5257 -0.9052,2.8285 -0.9052,7.5804 l 0,17.537 q 0,3.3942 0,5.5439 0.1132,2.1497 0.2263,3.3942 0.1132,1.3577 0.2263,2.0366 -7.0148,0 -10.7484,-2.9417 -3.7337,-2.9417 -3.7337,-9.617 l 0.1131,-15.953 q 0,-7.5804 2.1497,-12.3324 2.2629,-4.8651 5.7702,-7.5805 3.5074,-2.7154 7.8068,-3.6205 4.4125,-1.0183 8.7119,-1.0183 4.7519,0 9.3907,1.1314 4.6388,1.1315 8.2594,4.2994 3.6205,-3.1679 8.2593,-4.2994 4.6388,-1.1314 9.3907,-1.1314 4.2994,0 8.7119,1.0183 4.4126,0.9051 7.9199,3.6205 3.6206,2.7154 5.7703,7.5805 2.2628,4.752 2.2628,12.3324 l 0,17.537 q 0,3.3942 0,5.5439 0.1131,2.1497 0.2263,3.3942 0.1131,1.3577 0.2263,2.0366 -7.0148,0 -10.7485,-2.9417 -3.6205,-2.9417 -3.6205,-9.617 l 0.1131,-15.953 z"
         style="font-style:normal;font-variant:normal;font-weight:normal;font-stretch:normal;font-size:113.14150238px;line-height:125%;font-family:Fontastique;-inkscape-font-specification:'Fontastique, Normal';text-align:start;writing-mode:lr-tb;text-anchor:start;fill:#989898;fill-opacity:1"
         id="path4243" />
      <path
         d="m 1987.8809,1306.137 q 1.3577,0.792 2.6023,2.7154 l 0.3394,0.3394 -0.3394,0.3394 q -3.7337,4.0731 -8.9382,6.4491 -5.0914,2.2628 -11.0879,2.2628 -5.2045,0 -9.8433,-2.0365 -4.5257,-2.1497 -8.033,-5.8834 -3.3943,-3.6205 -5.4308,-8.4856 -1.9234,-4.9782 -1.9234,-10.6353 0,-5.6571 1.6971,-10.5222 1.8102,-4.9782 5.0913,-8.7119 3.2811,-3.6205 7.9199,-5.7702 4.752,-2.1497 10.5222,-2.1497 3.168,0 6.9016,1.0183 3.8469,0.9051 7.128,3.0548 3.2811,2.0366 5.4307,5.4308 2.1497,3.3943 2.1497,8.1462 0,4.6388 -2.3759,7.5805 -2.376,2.8285 -5.6571,4.5256 -3.2811,1.584 -7.0148,2.2629 -3.6205,0.5657 -6.3359,0.5657 -4.1862,0 -7.3542,-0.4526 -3.0548,-0.5657 -4.1862,-0.792 0.4525,4.0731 1.8102,6.6754 1.3577,2.4891 3.0548,3.9599 1.6972,1.4709 3.3943,2.0366 1.6971,0.4525 3.0548,0.4525 2.376,0 4.5257,-0.4525 2.1497,-0.4526 3.8468,-1.0183 1.6971,-0.5657 3.1679,-1.1314 1.584,-0.5657 3.0549,-0.5657 1.5839,0 2.8285,0.792 z m -17.4238,-32.4716 q -1.2445,0.1131 -2.9417,0.6788 -1.6971,0.4526 -3.3942,1.8103 -1.584,1.3577 -2.9417,3.8468 -1.3577,2.4891 -1.9234,6.3359 1.8103,0.5657 5.0914,1.1314 3.3942,0.4526 6.6753,0.1132 3.3943,-0.3395 5.8834,-1.9234 2.6022,-1.584 2.8285,-5.3177 0.2263,-2.8285 -2.2628,-4.8651 -2.376,-2.0365 -7.0148,-1.8102 z"
         style="font-style:normal;font-variant:normal;font-weight:normal;font-stretch:normal;font-size:113.14150238px;line-height:125%;font-family:Fontastique;-inkscape-font-specification:'Fontastique, Normal';text-align:start;writing-mode:lr-tb;text-anchor:start;fill:#989898;fill-opacity:1"
         id="path4245" />
      <path
         d="m 2000.7083,1288.6 q 0,-7.5804 2.1496,-12.3324 2.2629,-4.8651 5.6571,-7.5805 3.5074,-2.7154 7.8068,-3.6205 4.4125,-1.0183 8.825,-1.0183 4.2994,0 8.7119,1.0183 4.4125,0.9051 7.9199,3.6205 3.6206,2.7154 5.7702,7.5805 2.2629,4.752 2.2629,12.3324 l 0.4525,28.5117 q -6.9016,0 -10.6353,-2.9417 -3.7336,-2.9417 -3.7336,-9.617 l 0.1131,-15.953 q 0,-4.7519 -1.0183,-7.5804 -0.9051,-2.9417 -2.4891,-4.5257 -1.584,-1.6971 -3.5074,-2.2628 -1.9234,-0.5657 -3.8468,-0.5657 -1.9234,0 -3.8468,0.5657 -1.8103,0.5657 -3.3942,2.2628 -1.4709,1.584 -2.4891,4.5257 -0.9052,2.8285 -0.9052,7.5804 l 0,17.537 q 0.1132,3.3942 0.1132,5.5439 0.1131,2.1497 0.2262,3.3942 0.1132,1.3577 0.2263,2.0366 -7.0147,0 -10.7484,-2.9417 -3.7337,-2.9417 -3.7337,-9.617 l 0.1132,-15.953 z"
         style="font-style:normal;font-variant:normal;font-weight:normal;font-stretch:normal;font-size:113.14150238px;line-height:125%;font-family:Fontastique;-inkscape-font-specification:'Fontastique, Normal';text-align:start;writing-mode:lr-tb;text-anchor:start;fill:#989898;fill-opacity:1"
         id="path4247" />
      <path
         d="m 2090.4896,1307.1552 q 0,0.3395 0.1132,0.792 0.2262,0.9052 0.2262,1.6972 0,2.0365 -0.9051,3.7336 -0.9051,1.584 -2.4891,2.7154 -3.168,2.2629 -7.6936,2.2629 -3.7337,0 -7.3542,-1.6972 -3.6206,-1.6971 -6.5622,-5.0913 -2.9417,-3.3943 -4.752,-8.3725 -1.6971,-5.0914 -1.6971,-11.8799 l 0.1131,-32.6979 q 0,-6.7885 3.6206,-9.7301 3.6205,-2.9417 10.5221,-2.9417 -0.1131,0.792 -0.2263,2.1497 -0.1131,1.2445 -0.2262,3.3942 0,2.0366 0,5.4308 l 0.1131,7.1279 15.161,0 q 0,5.0914 -2.8286,8.1462 -2.8285,3.0548 -8.033,3.0548 l -4.2994,0 -0.1131,16.0661 q 0,4.752 0.792,8.0331 0.9051,3.1679 2.3759,5.2045 3.0548,3.8468 7.9199,3.8468 2.0366,0 4.0731,-0.5657 1.1314,-0.3394 2.1497,-0.6789 z"
         style="font-style:normal;font-variant:normal;font-weight:normal;font-stretch:normal;font-size:113.14150238px;line-height:125%;font-family:Fontastique;-inkscape-font-specification:'Fontastique, Normal';text-align:start;writing-mode:lr-tb;text-anchor:start;fill:#989898;fill-opacity:1"
         id="path4249" />
    </g>
  </g>
</svg>
